<?xml version="1.0" encoding="utf-8"?>
<!-- Generator: Adobe Illustrator 26.2.1, SVG Export Plug-In . SVG Version: 6.00 Build 0)  -->
<svg version="1.1" id="Layer_1" xmlns="http://www.w3.org/2000/svg" xmlns:xlink="http://www.w3.org/1999/xlink" x="0px" y="0px"
	 viewBox="0 0 837.3 863.9" style="enable-background:new 0 0 837.3 863.9;" xml:space="preserve">
<style type="text/css">
	.st0{clip-path:url(#SVGID_00000021832935413749836580000006603502548713262257_);fill:#FFFFFF;}
	.st1{fill:#FFFFFF;}
	.st2{fill:#262626;}
	.st3{font-family:'Helvetica';}
	.st4{font-size:13px;}
	.st5{font-size:12px;}
	.st6{fill:none;stroke:#262626;stroke-width:0.5;stroke-linecap:square;stroke-linejoin:round;stroke-miterlimit:10;}
	.st7{font-size:10px;}
	.st8{font-size:11px;}
	.st9{font-family:'Helvetica-Bold';}
	.st10{opacity:0.4;fill:none;stroke:#E31B1B;stroke-linejoin:round;stroke-miterlimit:10;}
	.st11{fill:#E31B1B;}
	.st12{opacity:0.4;fill:none;stroke:#1E78B4;stroke-linejoin:round;stroke-miterlimit:10;}
	.st13{fill:#1E78B4;}
	.st14{font-size:9px;}
	.st15{clip-path:url(#SVGID_00000088849847492309331680000011292787110110852253_);fill:#FFFFFF;}
	.st16{opacity:0.102;fill:#E31B1B;}
	.st17{opacity:0.102;fill:#1E78B4;}
	.st18{opacity:0.702;fill:none;stroke:#7D7D7D;stroke-linejoin:bevel;stroke-miterlimit:1;stroke-dasharray:10,6;}
	.st19{opacity:0.702;fill:none;stroke:#E31B1B;stroke-linejoin:bevel;stroke-miterlimit:1;stroke-dasharray:10,6;}
	.st20{opacity:0.702;fill:none;stroke:#1E78B4;stroke-linejoin:bevel;stroke-miterlimit:1;stroke-dasharray:10,6;}
	.st21{fill:none;}
	.st22{font-size:20px;}
</style>
<g>
	<g>
		<defs>
			<rect id="SVGID_1_" x="37.3" y="33.6" width="800" height="400"/>
		</defs>
		<clipPath id="SVGID_00000029026998852540889260000005025656776647721627_">
			<use xlink:href="#SVGID_1_"  style="overflow:visible;"/>
		</clipPath>
		
			<rect x="37.3" y="33.6" style="clip-path:url(#SVGID_00000029026998852540889260000005025656776647721627_);fill:#FFFFFF;" width="800" height="400"/>
	</g>
	<rect x="37.3" y="33.6" class="st1" width="800" height="400"/>
	<text transform="matrix(1 0 0 1 342.5067 50.121)" class="st2 st3 st4">Model Simulation</text>
	<text transform="matrix(1 0 0 1 294.0067 428.121)" class="st2 st3 st5">Audiovisual spatial discrepancy (deg)</text>
	<text transform="matrix(-4.375000e-08 -1 1 -4.375000e-08 51.7568 328.7457)" class="st2 st3 st5">Proportion of reporting confident</text>
	<rect x="92.8" y="85.6" class="st1" width="182" height="141"/>
	<line class="st6" x1="92.8" y1="226.6" x2="274.8" y2="226.6"/>
	<line class="st6" x1="92.8" y1="226.6" x2="92.8" y2="224.8"/>
	<line class="st6" x1="129.2" y1="226.6" x2="129.2" y2="224.8"/>
	<line class="st6" x1="165.6" y1="226.6" x2="165.6" y2="224.8"/>
	<line class="st6" x1="202" y1="226.6" x2="202" y2="224.8"/>
	<line class="st6" x1="274.8" y1="226.6" x2="274.8" y2="224.8"/>
	<text transform="matrix(1 0 0 1 89.7568 240.621)" class="st2 st3 st7">0</text>
	<text transform="matrix(1 0 0 1 126.1568 240.621)" class="st2 st3 st7">4</text>
	<text transform="matrix(1 0 0 1 162.5568 240.621)" class="st2 st3 st7">8</text>
	<text transform="matrix(1 0 0 1 195.9568 240.621)" class="st2 st3 st7">12</text>
	<text transform="matrix(1 0 0 1 268.7568 240.621)" class="st2 st3 st7">20</text>
	<line class="st6" x1="92.8" y1="226.6" x2="92.8" y2="85.6"/>
	<line class="st6" x1="92.8" y1="226.6" x2="94.6" y2="226.6"/>
	<line class="st6" x1="92.8" y1="198.4" x2="94.6" y2="198.4"/>
	<line class="st6" x1="92.8" y1="170.2" x2="94.6" y2="170.2"/>
	<line class="st6" x1="92.8" y1="142" x2="94.6" y2="142"/>
	<line class="st6" x1="92.8" y1="113.8" x2="94.6" y2="113.8"/>
	<line class="st6" x1="92.8" y1="85.6" x2="94.6" y2="85.6"/>
	<text transform="matrix(1 0 0 1 82.7568 230.121)" class="st2 st3 st7">0</text>
	<text transform="matrix(1 0 0 1 74.7568 201.921)" class="st2 st3 st7">0.2</text>
	<text transform="matrix(1 0 0 1 74.7568 173.721)" class="st2 st3 st7">0.4</text>
	<text transform="matrix(1 0 0 1 74.7568 145.521)" class="st2 st3 st7">0.6</text>
	<text transform="matrix(1 0 0 1 74.7568 117.321)" class="st2 st3 st7">0.8</text>
	<text transform="matrix(1 0 0 1 82.7568 89.121)" class="st2 st3 st7">1</text>
	<text transform="matrix(-4.375000e-08 -1 1 -4.375000e-08 68.7568 205.6207)" class="st2 st3 st8">Auditory confidence</text>
	<text transform="matrix(1 0 0 1 159.7569 67.246)" class="st9 st8">Heuristic</text>
	<text transform="matrix(1 0 0 1 165.7569 81.246)" class="st9 st8"> model</text>
	<polyline class="st10" points="92.8,91.3 129.2,96.9 165.6,92.7 202,96.9 274.8,91.3 	"/>
	<circle class="st11" cx="92.8" cy="91.3" r="1.5"/>
	<path class="st11" d="M92.8,89.3c-1.1,0-2,0.9-2,2s0.9,2,2,2s2-0.9,2-2S93.9,89.3,92.8,89.3z M92.8,90.3c0.6,0,1,0.4,1,1
		s-0.4,1-1,1s-1-0.4-1-1S92.2,90.3,92.8,90.3z"/>
	<circle class="st11" cx="129.2" cy="96.9" r="1.5"/>
	<path class="st11" d="M129.2,94.9c-1.1,0-2,0.9-2,2s0.9,2,2,2s2-0.9,2-2S130.3,94.9,129.2,94.9z M129.2,95.9c0.6,0,1,0.4,1,1
		s-0.4,1-1,1c-0.6,0-1-0.4-1-1S128.6,95.9,129.2,95.9z"/>
	<circle class="st11" cx="165.6" cy="92.7" r="1.5"/>
	<path class="st11" d="M165.6,90.7c-1.1,0-2,0.9-2,2s0.9,2,2,2s2-0.9,2-2S166.7,90.7,165.6,90.7z M165.6,91.7c0.6,0,1,0.4,1,1
		s-0.4,1-1,1c-0.6,0-1-0.4-1-1S165,91.7,165.6,91.7z"/>
	<circle class="st11" cx="202" cy="96.9" r="1.5"/>
	<path class="st11" d="M202,94.9c-1.1,0-2,0.9-2,2s0.9,2,2,2s2-0.9,2-2S203.1,94.9,202,94.9z M202,95.9c0.6,0,1,0.4,1,1s-0.4,1-1,1
		c-0.6,0-1-0.4-1-1S201.4,95.9,202,95.9z"/>
	<circle class="st11" cx="274.8" cy="91.3" r="1.5"/>
	<path class="st11" d="M274.8,89.3c-1.1,0-2,0.9-2,2s0.9,2,2,2c1.1,0,2-0.9,2-2S275.9,89.3,274.8,89.3z M274.8,90.3c0.6,0,1,0.4,1,1
		s-0.4,1-1,1c-0.6,0-1-0.4-1-1S274.2,90.3,274.8,90.3z"/>
	<polyline class="st12" points="92.8,90.9 129.2,92 165.6,90.6 202,92.7 274.8,93.4 	"/>
	<circle class="st13" cx="92.8" cy="90.9" r="1.5"/>
	<path class="st13" d="M92.8,88.9c-1.1,0-2,0.9-2,2s0.9,2,2,2s2-0.9,2-2S93.9,88.9,92.8,88.9z M92.8,89.9c0.6,0,1,0.4,1,1
		s-0.4,1-1,1s-1-0.4-1-1S92.2,89.9,92.8,89.9z"/>
	<circle class="st13" cx="129.2" cy="92" r="1.5"/>
	<path class="st13" d="M129.2,90c-1.1,0-2,0.9-2,2s0.9,2,2,2s2-0.9,2-2S130.3,90,129.2,90z M129.2,91c0.6,0,1,0.4,1,1s-0.4,1-1,1
		c-0.6,0-1-0.4-1-1S128.6,91,129.2,91z"/>
	<circle class="st13" cx="165.6" cy="90.6" r="1.5"/>
	<path class="st13" d="M165.6,88.6c-1.1,0-2,0.9-2,2s0.9,2,2,2s2-0.9,2-2S166.7,88.6,165.6,88.6z M165.6,89.6c0.6,0,1,0.4,1,1
		s-0.4,1-1,1c-0.6,0-1-0.4-1-1S165,89.6,165.6,89.6z"/>
	<circle class="st13" cx="202" cy="92.7" r="1.5"/>
	<path class="st13" d="M202,90.7c-1.1,0-2,0.9-2,2s0.9,2,2,2s2-0.9,2-2S203.1,90.7,202,90.7z M202,91.7c0.6,0,1,0.4,1,1s-0.4,1-1,1
		c-0.6,0-1-0.4-1-1S201.4,91.7,202,91.7z"/>
	<circle class="st13" cx="274.8" cy="93.4" r="1.5"/>
	<path class="st13" d="M274.8,91.4c-1.1,0-2,0.9-2,2s0.9,2,2,2c1.1,0,2-0.9,2-2S275.9,91.4,274.8,91.4z M274.8,92.4c0.6,0,1,0.4,1,1
		s-0.4,1-1,1c-0.6,0-1-0.4-1-1S274.2,92.4,274.8,92.4z"/>
	<rect x="92.8" y="254.6" class="st1" width="182" height="141"/>
	<line class="st6" x1="92.8" y1="395.6" x2="274.8" y2="395.6"/>
	<line class="st6" x1="92.8" y1="395.6" x2="92.8" y2="393.8"/>
	<line class="st6" x1="129.2" y1="395.6" x2="129.2" y2="393.8"/>
	<line class="st6" x1="165.6" y1="395.6" x2="165.6" y2="393.8"/>
	<line class="st6" x1="202" y1="395.6" x2="202" y2="393.8"/>
	<line class="st6" x1="274.8" y1="395.6" x2="274.8" y2="393.8"/>
	<text transform="matrix(1 0 0 1 89.7568 409.621)" class="st2 st3 st7">0</text>
	<text transform="matrix(1 0 0 1 126.1568 409.621)" class="st2 st3 st7">4</text>
	<text transform="matrix(1 0 0 1 162.5568 409.621)" class="st2 st3 st7">8</text>
	<text transform="matrix(1 0 0 1 195.9568 409.621)" class="st2 st3 st7">12</text>
	<text transform="matrix(1 0 0 1 268.7568 409.621)" class="st2 st3 st7">20</text>
	<line class="st6" x1="92.8" y1="395.6" x2="92.8" y2="254.6"/>
	<line class="st6" x1="92.8" y1="395.6" x2="94.6" y2="395.6"/>
	<line class="st6" x1="92.8" y1="367.4" x2="94.6" y2="367.4"/>
	<line class="st6" x1="92.8" y1="339.2" x2="94.6" y2="339.2"/>
	<line class="st6" x1="92.8" y1="311" x2="94.6" y2="311"/>
	<line class="st6" x1="92.8" y1="282.8" x2="94.6" y2="282.8"/>
	<line class="st6" x1="92.8" y1="254.6" x2="94.6" y2="254.6"/>
	<text transform="matrix(1 0 0 1 82.7568 399.121)" class="st2 st3 st7">0</text>
	<text transform="matrix(1 0 0 1 74.7568 370.921)" class="st2 st3 st7">0.2</text>
	<text transform="matrix(1 0 0 1 74.7568 342.721)" class="st2 st3 st7">0.4</text>
	<text transform="matrix(1 0 0 1 74.7568 314.521)" class="st2 st3 st7">0.6</text>
	<text transform="matrix(1 0 0 1 74.7568 286.321)" class="st2 st3 st7">0.8</text>
	<text transform="matrix(1 0 0 1 82.7568 258.121)" class="st2 st3 st7">1</text>
	<text transform="matrix(-4.375000e-08 -1 1 -4.375000e-08 68.7568 368.6207)" class="st2 st3 st8">Visual confidence</text>
	<polyline class="st10" points="92.8,263.1 129.2,263.1 165.6,261.3 202,262.7 274.8,261 	"/>
	<circle class="st11" cx="92.8" cy="263.1" r="1.5"/>
	<path class="st11" d="M92.8,261.1c-1.1,0-2,0.9-2,2s0.9,2,2,2s2-0.9,2-2S93.9,261.1,92.8,261.1z M92.8,262.1c0.6,0,1,0.4,1,1
		s-0.4,1-1,1s-1-0.4-1-1S92.2,262.1,92.8,262.1z"/>
	<circle class="st11" cx="129.2" cy="263.1" r="1.5"/>
	<path class="st11" d="M129.2,261.1c-1.1,0-2,0.9-2,2s0.9,2,2,2s2-0.9,2-2S130.3,261.1,129.2,261.1z M129.2,262.1c0.6,0,1,0.4,1,1
		s-0.4,1-1,1c-0.6,0-1-0.4-1-1S128.6,262.1,129.2,262.1z"/>
	<circle class="st11" cx="165.6" cy="261.3" r="1.5"/>
	<path class="st11" d="M165.6,259.3c-1.1,0-2,0.9-2,2s0.9,2,2,2s2-0.9,2-2S166.7,259.3,165.6,259.3z M165.6,260.3c0.6,0,1,0.4,1,1
		s-0.4,1-1,1c-0.6,0-1-0.4-1-1S165,260.3,165.6,260.3z"/>
	<circle class="st11" cx="202" cy="262.7" r="1.5"/>
	<path class="st11" d="M202,260.7c-1.1,0-2,0.9-2,2s0.9,2,2,2s2-0.9,2-2S203.1,260.7,202,260.7z M202,261.7c0.6,0,1,0.4,1,1
		s-0.4,1-1,1c-0.6,0-1-0.4-1-1S201.4,261.7,202,261.7z"/>
	<circle class="st11" cx="274.8" cy="261" r="1.5"/>
	<path class="st11" d="M274.8,259c-1.1,0-2,0.9-2,2s0.9,2,2,2c1.1,0,2-0.9,2-2S275.9,259,274.8,259z M274.8,260c0.6,0,1,0.4,1,1
		s-0.4,1-1,1c-0.6,0-1-0.4-1-1S274.2,260,274.8,260z"/>
	<polyline class="st12" points="92.8,388.6 129.2,388.6 165.6,387.5 202,388.2 274.8,390.7 	"/>
	<circle class="st13" cx="92.8" cy="388.6" r="1.5"/>
	<path class="st13" d="M92.8,386.6c-1.1,0-2,0.9-2,2c0,1.1,0.9,2,2,2s2-0.9,2-2C94.8,387.5,93.9,386.6,92.8,386.6z M92.8,387.6
		c0.6,0,1,0.4,1,1c0,0.6-0.4,1-1,1s-1-0.4-1-1C91.8,388,92.2,387.6,92.8,387.6z"/>
	<circle class="st13" cx="129.2" cy="388.6" r="1.5"/>
	<path class="st13" d="M129.2,386.6c-1.1,0-2,0.9-2,2c0,1.1,0.9,2,2,2s2-0.9,2-2C131.2,387.5,130.3,386.6,129.2,386.6z M129.2,387.6
		c0.6,0,1,0.4,1,1c0,0.6-0.4,1-1,1c-0.6,0-1-0.4-1-1C128.2,388,128.6,387.6,129.2,387.6z"/>
	<circle class="st13" cx="165.6" cy="387.5" r="1.5"/>
	<path class="st13" d="M165.6,385.5c-1.1,0-2,0.9-2,2c0,1.1,0.9,2,2,2s2-0.9,2-2C167.6,386.4,166.7,385.5,165.6,385.5z M165.6,386.5
		c0.6,0,1,0.4,1,1c0,0.6-0.4,1-1,1c-0.6,0-1-0.4-1-1C164.6,387,165,386.5,165.6,386.5z"/>
	<circle class="st13" cx="202" cy="388.2" r="1.5"/>
	<path class="st13" d="M202,386.2c-1.1,0-2,0.9-2,2c0,1.1,0.9,2,2,2s2-0.9,2-2C204,387.1,203.1,386.2,202,386.2z M202,387.2
		c0.6,0,1,0.4,1,1c0,0.6-0.4,1-1,1c-0.6,0-1-0.4-1-1C201,387.7,201.4,387.2,202,387.2z"/>
	<circle class="st13" cx="274.8" cy="390.7" r="1.5"/>
	<path class="st13" d="M274.8,388.7c-1.1,0-2,0.9-2,2c0,1.1,0.9,2,2,2c1.1,0,2-0.9,2-2C276.8,389.6,275.9,388.7,274.8,388.7z
		 M274.8,389.7c0.6,0,1,0.4,1,1c0,0.6-0.4,1-1,1c-0.6,0-1-0.4-1-1C273.8,390.1,274.2,389.7,274.8,389.7z"/>
	<rect x="302.8" y="85.6" class="st1" width="181.5" height="141"/>
	<line class="st6" x1="302.8" y1="226.6" x2="484.3" y2="226.6"/>
	<line class="st6" x1="302.8" y1="226.6" x2="302.8" y2="224.8"/>
	<line class="st6" x1="339.1" y1="226.6" x2="339.1" y2="224.8"/>
	<line class="st6" x1="375.4" y1="226.6" x2="375.4" y2="224.8"/>
	<line class="st6" x1="411.7" y1="226.6" x2="411.7" y2="224.8"/>
	<line class="st6" x1="484.3" y1="226.6" x2="484.3" y2="224.8"/>
	<text transform="matrix(1 0 0 1 299.7568 240.621)" class="st2 st3 st7">0</text>
	<text transform="matrix(1 0 0 1 336.0568 240.621)" class="st2 st3 st7">4</text>
	<text transform="matrix(1 0 0 1 372.3568 240.621)" class="st2 st3 st7">8</text>
	<text transform="matrix(1 0 0 1 405.6567 240.621)" class="st2 st3 st7">12</text>
	<text transform="matrix(1 0 0 1 478.2567 240.621)" class="st2 st3 st7">20</text>
	<line class="st6" x1="302.8" y1="226.6" x2="302.8" y2="85.6"/>
	<line class="st6" x1="302.8" y1="226.6" x2="304.6" y2="226.6"/>
	<line class="st6" x1="302.8" y1="198.4" x2="304.6" y2="198.4"/>
	<line class="st6" x1="302.8" y1="170.2" x2="304.6" y2="170.2"/>
	<line class="st6" x1="302.8" y1="142" x2="304.6" y2="142"/>
	<line class="st6" x1="302.8" y1="113.8" x2="304.6" y2="113.8"/>
	<line class="st6" x1="302.8" y1="85.6" x2="304.6" y2="85.6"/>
	<text transform="matrix(1 0 0 1 292.7568 230.121)" class="st2 st3 st7">0</text>
	<text transform="matrix(1 0 0 1 284.7568 201.921)" class="st2 st3 st7">0.2</text>
	<text transform="matrix(1 0 0 1 284.7568 173.721)" class="st2 st3 st7">0.4</text>
	<text transform="matrix(1 0 0 1 284.7568 145.521)" class="st2 st3 st7">0.6</text>
	<text transform="matrix(1 0 0 1 284.7568 117.321)" class="st2 st3 st7">0.8</text>
	<text transform="matrix(1 0 0 1 292.7568 89.121)" class="st2 st3 st7">1</text>
	<text transform="matrix(1 0 0 1 363.5071 67.246)" class="st9 st8">Suboptimal</text>
	<text transform="matrix(1 0 0 1 375.5071 81.246)" class="st9 st8"> model</text>
	<polyline class="st10" points="302.8,94.1 339.1,94.8 375.4,134.6 411.7,173.7 484.3,217.5 	"/>
	<circle class="st11" cx="302.8" cy="94.1" r="1.5"/>
	<path class="st11" d="M302.8,92.1c-1.1,0-2,0.9-2,2s0.9,2,2,2c1.1,0,2-0.9,2-2S303.9,92.1,302.8,92.1z M302.8,93.1c0.6,0,1,0.4,1,1
		s-0.4,1-1,1c-0.6,0-1-0.4-1-1S302.2,93.1,302.8,93.1z"/>
	<circle class="st11" cx="339.1" cy="94.8" r="1.5"/>
	<path class="st11" d="M339.1,92.8c-1.1,0-2,0.9-2,2s0.9,2,2,2c1.1,0,2-0.9,2-2S340.2,92.8,339.1,92.8z M339.1,93.8c0.6,0,1,0.4,1,1
		s-0.4,1-1,1c-0.6,0-1-0.4-1-1S338.5,93.8,339.1,93.8z"/>
	<circle class="st11" cx="375.4" cy="134.6" r="1.5"/>
	<path class="st11" d="M375.4,132.6c-1.1,0-2,0.9-2,2s0.9,2,2,2c1.1,0,2-0.9,2-2S376.5,132.6,375.4,132.6z M375.4,133.6
		c0.6,0,1,0.4,1,1s-0.4,1-1,1c-0.6,0-1-0.4-1-1S374.8,133.6,375.4,133.6z"/>
	<circle class="st11" cx="411.7" cy="173.7" r="1.5"/>
	<path class="st11" d="M411.7,171.7c-1.1,0-2,0.9-2,2s0.9,2,2,2s2-0.9,2-2S412.8,171.7,411.7,171.7z M411.7,172.7c0.6,0,1,0.4,1,1
		s-0.4,1-1,1s-1-0.4-1-1S411.1,172.7,411.7,172.7z"/>
	<circle class="st11" cx="484.3" cy="217.5" r="1.5"/>
	<path class="st11" d="M484.3,215.5c-1.1,0-2,0.9-2,2s0.9,2,2,2s2-0.9,2-2S485.4,215.5,484.3,215.5z M484.3,216.5c0.6,0,1,0.4,1,1
		s-0.4,1-1,1s-1-0.4-1-1S483.7,216.5,484.3,216.5z"/>
	<polyline class="st12" points="302.8,100.1 339.1,98.3 375.4,108.5 411.7,109.9 484.3,149.1 	"/>
	<circle class="st13" cx="302.8" cy="100.1" r="1.5"/>
	<path class="st13" d="M302.8,98.1c-1.1,0-2,0.9-2,2s0.9,2,2,2c1.1,0,2-0.9,2-2S303.9,98.1,302.8,98.1z M302.8,99.1c0.6,0,1,0.4,1,1
		s-0.4,1-1,1c-0.6,0-1-0.4-1-1S302.2,99.1,302.8,99.1z"/>
	<circle class="st13" cx="339.1" cy="98.3" r="1.5"/>
	<path class="st13" d="M339.1,96.3c-1.1,0-2,0.9-2,2s0.9,2,2,2c1.1,0,2-0.9,2-2S340.2,96.3,339.1,96.3z M339.1,97.3c0.6,0,1,0.4,1,1
		s-0.4,1-1,1c-0.6,0-1-0.4-1-1S338.5,97.3,339.1,97.3z"/>
	<circle class="st13" cx="375.4" cy="108.5" r="1.5"/>
	<path class="st13" d="M375.4,106.5c-1.1,0-2,0.9-2,2s0.9,2,2,2c1.1,0,2-0.9,2-2S376.5,106.5,375.4,106.5z M375.4,107.5
		c0.6,0,1,0.4,1,1s-0.4,1-1,1c-0.6,0-1-0.4-1-1S374.8,107.5,375.4,107.5z"/>
	<circle class="st13" cx="411.7" cy="109.9" r="1.5"/>
	<path class="st13" d="M411.7,107.9c-1.1,0-2,0.9-2,2s0.9,2,2,2s2-0.9,2-2S412.8,107.9,411.7,107.9z M411.7,108.9c0.6,0,1,0.4,1,1
		s-0.4,1-1,1s-1-0.4-1-1S411.1,108.9,411.7,108.9z"/>
	<circle class="st13" cx="484.3" cy="149.1" r="1.5"/>
	<path class="st13" d="M484.3,147.1c-1.1,0-2,0.9-2,2s0.9,2,2,2s2-0.9,2-2S485.4,147.1,484.3,147.1z M484.3,148.1c0.6,0,1,0.4,1,1
		s-0.4,1-1,1s-1-0.4-1-1S483.7,148.1,484.3,148.1z"/>
	<rect x="302.8" y="254.6" class="st1" width="181.5" height="141"/>
	<line class="st6" x1="302.8" y1="395.6" x2="484.3" y2="395.6"/>
	<line class="st6" x1="302.8" y1="395.6" x2="302.8" y2="393.8"/>
	<line class="st6" x1="339.1" y1="395.6" x2="339.1" y2="393.8"/>
	<line class="st6" x1="375.4" y1="395.6" x2="375.4" y2="393.8"/>
	<line class="st6" x1="411.7" y1="395.6" x2="411.7" y2="393.8"/>
	<line class="st6" x1="484.3" y1="395.6" x2="484.3" y2="393.8"/>
	<text transform="matrix(1 0 0 1 299.7568 409.621)" class="st2 st3 st7">0</text>
	<text transform="matrix(1 0 0 1 336.0568 409.621)" class="st2 st3 st7">4</text>
	<text transform="matrix(1 0 0 1 372.3568 409.621)" class="st2 st3 st7">8</text>
	<text transform="matrix(1 0 0 1 405.6567 409.621)" class="st2 st3 st7">12</text>
	<text transform="matrix(1 0 0 1 478.2567 409.621)" class="st2 st3 st7">20</text>
	<line class="st6" x1="302.8" y1="395.6" x2="302.8" y2="254.6"/>
	<line class="st6" x1="302.8" y1="395.6" x2="304.6" y2="395.6"/>
	<line class="st6" x1="302.8" y1="367.4" x2="304.6" y2="367.4"/>
	<line class="st6" x1="302.8" y1="339.2" x2="304.6" y2="339.2"/>
	<line class="st6" x1="302.8" y1="311" x2="304.6" y2="311"/>
	<line class="st6" x1="302.8" y1="282.8" x2="304.6" y2="282.8"/>
	<line class="st6" x1="302.8" y1="254.6" x2="304.6" y2="254.6"/>
	<text transform="matrix(1 0 0 1 292.7568 399.121)" class="st2 st3 st7">0</text>
	<text transform="matrix(1 0 0 1 284.7568 370.921)" class="st2 st3 st7">0.2</text>
	<text transform="matrix(1 0 0 1 284.7568 342.721)" class="st2 st3 st7">0.4</text>
	<text transform="matrix(1 0 0 1 284.7568 314.521)" class="st2 st3 st7">0.6</text>
	<text transform="matrix(1 0 0 1 284.7568 286.321)" class="st2 st3 st7">0.8</text>
	<text transform="matrix(1 0 0 1 292.7568 258.121)" class="st2 st3 st7">1</text>
	<polyline class="st10" points="302.8,262.7 339.1,259.6 375.4,264.5 411.7,261 484.3,261.7 	"/>
	<circle class="st11" cx="302.8" cy="262.7" r="1.5"/>
	<path class="st11" d="M302.8,260.7c-1.1,0-2,0.9-2,2s0.9,2,2,2c1.1,0,2-0.9,2-2S303.9,260.7,302.8,260.7z M302.8,261.7
		c0.6,0,1,0.4,1,1s-0.4,1-1,1c-0.6,0-1-0.4-1-1S302.2,261.7,302.8,261.7z"/>
	<circle class="st11" cx="339.1" cy="259.6" r="1.5"/>
	<path class="st11" d="M339.1,257.6c-1.1,0-2,0.9-2,2s0.9,2,2,2c1.1,0,2-0.9,2-2S340.2,257.6,339.1,257.6z M339.1,258.6
		c0.6,0,1,0.4,1,1s-0.4,1-1,1c-0.6,0-1-0.4-1-1S338.5,258.6,339.1,258.6z"/>
	<circle class="st11" cx="375.4" cy="264.5" r="1.5"/>
	<path class="st11" d="M375.4,262.5c-1.1,0-2,0.9-2,2s0.9,2,2,2c1.1,0,2-0.9,2-2S376.5,262.5,375.4,262.5z M375.4,263.5
		c0.6,0,1,0.4,1,1s-0.4,1-1,1c-0.6,0-1-0.4-1-1S374.8,263.5,375.4,263.5z"/>
	<circle class="st11" cx="411.7" cy="261" r="1.5"/>
	<path class="st11" d="M411.7,259c-1.1,0-2,0.9-2,2s0.9,2,2,2s2-0.9,2-2S412.8,259,411.7,259z M411.7,260c0.6,0,1,0.4,1,1
		s-0.4,1-1,1s-1-0.4-1-1S411.1,260,411.7,260z"/>
	<circle class="st11" cx="484.3" cy="261.7" r="1.5"/>
	<path class="st11" d="M484.3,259.7c-1.1,0-2,0.9-2,2s0.9,2,2,2s2-0.9,2-2S485.4,259.7,484.3,259.7z M484.3,260.7c0.6,0,1,0.4,1,1
		s-0.4,1-1,1s-1-0.4-1-1S483.7,260.7,484.3,260.7z"/>
	<polyline class="st12" points="302.8,388.9 339.1,386.5 375.4,386.5 411.7,387.5 484.3,391.4 	"/>
	<circle class="st13" cx="302.8" cy="388.9" r="1.5"/>
	<path class="st13" d="M302.8,386.9c-1.1,0-2,0.9-2,2c0,1.1,0.9,2,2,2c1.1,0,2-0.9,2-2C304.8,387.8,303.9,386.9,302.8,386.9z
		 M302.8,387.9c0.6,0,1,0.4,1,1c0,0.6-0.4,1-1,1c-0.6,0-1-0.4-1-1C301.8,388.4,302.2,387.9,302.8,387.9z"/>
	<circle class="st13" cx="339.1" cy="386.5" r="1.5"/>
	<path class="st13" d="M339.1,384.5c-1.1,0-2,0.9-2,2c0,1.1,0.9,2,2,2c1.1,0,2-0.9,2-2C341.1,385.4,340.2,384.5,339.1,384.5z
		 M339.1,385.5c0.6,0,1,0.4,1,1c0,0.6-0.4,1-1,1c-0.6,0-1-0.4-1-1C338.1,385.9,338.5,385.5,339.1,385.5z"/>
	<circle class="st13" cx="375.4" cy="386.5" r="1.5"/>
	<path class="st13" d="M375.4,384.5c-1.1,0-2,0.9-2,2c0,1.1,0.9,2,2,2c1.1,0,2-0.9,2-2C377.4,385.4,376.5,384.5,375.4,384.5z
		 M375.4,385.5c0.6,0,1,0.4,1,1c0,0.6-0.4,1-1,1c-0.6,0-1-0.4-1-1C374.4,385.9,374.8,385.5,375.4,385.5z"/>
	<circle class="st13" cx="411.7" cy="387.5" r="1.5"/>
	<path class="st13" d="M411.7,385.5c-1.1,0-2,0.9-2,2c0,1.1,0.9,2,2,2s2-0.9,2-2C413.7,386.4,412.8,385.5,411.7,385.5z M411.7,386.5
		c0.6,0,1,0.4,1,1c0,0.6-0.4,1-1,1s-1-0.4-1-1C410.7,387,411.1,386.5,411.7,386.5z"/>
	<circle class="st13" cx="484.3" cy="391.4" r="1.5"/>
	<path class="st13" d="M484.3,389.4c-1.1,0-2,0.9-2,2c0,1.1,0.9,2,2,2s2-0.9,2-2C486.3,390.3,485.4,389.4,484.3,389.4z M484.3,390.4
		c0.6,0,1,0.4,1,1c0,0.6-0.4,1-1,1s-1-0.4-1-1C483.3,390.8,483.7,390.4,484.3,390.4z"/>
	<rect x="512.3" y="85.6" class="st1" width="182" height="141"/>
	<line class="st6" x1="512.3" y1="226.6" x2="694.3" y2="226.6"/>
	<line class="st6" x1="512.3" y1="226.6" x2="512.3" y2="224.8"/>
	<line class="st6" x1="548.7" y1="226.6" x2="548.7" y2="224.8"/>
	<line class="st6" x1="585.1" y1="226.6" x2="585.1" y2="224.8"/>
	<line class="st6" x1="621.5" y1="226.6" x2="621.5" y2="224.8"/>
	<line class="st6" x1="694.3" y1="226.6" x2="694.3" y2="224.8"/>
	<text transform="matrix(1 0 0 1 509.2567 240.621)" class="st2 st3 st7">0</text>
	<text transform="matrix(1 0 0 1 545.6567 240.621)" class="st2 st3 st7">4</text>
	<text transform="matrix(1 0 0 1 582.0568 240.621)" class="st2 st3 st7">8</text>
	<text transform="matrix(1 0 0 1 615.4568 240.621)" class="st2 st3 st7">12</text>
	<text transform="matrix(1 0 0 1 688.2568 240.621)" class="st2 st3 st7">20</text>
	<line class="st6" x1="512.3" y1="226.6" x2="512.3" y2="85.6"/>
	<line class="st6" x1="512.3" y1="226.6" x2="514.1" y2="226.6"/>
	<line class="st6" x1="512.3" y1="198.4" x2="514.1" y2="198.4"/>
	<line class="st6" x1="512.3" y1="170.2" x2="514.1" y2="170.2"/>
	<line class="st6" x1="512.3" y1="142" x2="514.1" y2="142"/>
	<line class="st6" x1="512.3" y1="113.8" x2="514.1" y2="113.8"/>
	<line class="st6" x1="512.3" y1="85.6" x2="514.1" y2="85.6"/>
	<text transform="matrix(1 0 0 1 502.2567 230.121)" class="st2 st3 st7">0</text>
	<text transform="matrix(1 0 0 1 494.2567 201.921)" class="st2 st3 st7">0.2</text>
	<text transform="matrix(1 0 0 1 494.2567 173.721)" class="st2 st3 st7">0.4</text>
	<text transform="matrix(1 0 0 1 494.2567 145.521)" class="st2 st3 st7">0.6</text>
	<text transform="matrix(1 0 0 1 494.2567 117.321)" class="st2 st3 st7">0.8</text>
	<text transform="matrix(1 0 0 1 502.2567 89.121)" class="st2 st3 st7">1</text>
	<text transform="matrix(1 0 0 1 582.2573 67.246)" class="st9 st8">Optimal</text>
	<text transform="matrix(1 0 0 1 585.2573 81.246)" class="st9 st8"> model</text>
	<polyline class="st10" points="512.3,94.8 548.7,141.3 585.1,95.8 621.5,91.6 694.3,89.9 	"/>
	<circle class="st11" cx="512.3" cy="94.8" r="1.5"/>
	<path class="st11" d="M512.3,92.8c-1.1,0-2,0.9-2,2s0.9,2,2,2c1.1,0,2-0.9,2-2S513.4,92.8,512.3,92.8z M512.3,93.8c0.6,0,1,0.4,1,1
		s-0.4,1-1,1c-0.6,0-1-0.4-1-1S511.7,93.8,512.3,93.8z"/>
	<circle class="st11" cx="548.7" cy="141.3" r="1.5"/>
	<path class="st11" d="M548.7,139.3c-1.1,0-2,0.9-2,2s0.9,2,2,2c1.1,0,2-0.9,2-2S549.8,139.3,548.7,139.3z M548.7,140.3
		c0.6,0,1,0.4,1,1s-0.4,1-1,1c-0.6,0-1-0.4-1-1S548.1,140.3,548.7,140.3z"/>
	<circle class="st11" cx="585.1" cy="95.8" r="1.5"/>
	<path class="st11" d="M585.1,93.8c-1.1,0-2,0.9-2,2s0.9,2,2,2c1.1,0,2-0.9,2-2S586.2,93.8,585.1,93.8z M585.1,94.8c0.6,0,1,0.4,1,1
		s-0.4,1-1,1c-0.6,0-1-0.4-1-1S584.5,94.8,585.1,94.8z"/>
	<circle class="st11" cx="621.5" cy="91.6" r="1.5"/>
	<path class="st11" d="M621.5,89.6c-1.1,0-2,0.9-2,2s0.9,2,2,2c1.1,0,2-0.9,2-2S622.6,89.6,621.5,89.6z M621.5,90.6c0.6,0,1,0.4,1,1
		s-0.4,1-1,1c-0.6,0-1-0.4-1-1S620.9,90.6,621.5,90.6z"/>
	<circle class="st11" cx="694.3" cy="89.9" r="1.5"/>
	<path class="st11" d="M694.3,87.9c-1.1,0-2,0.9-2,2s0.9,2,2,2s2-0.9,2-2S695.4,87.9,694.3,87.9z M694.3,88.9c0.6,0,1,0.4,1,1
		s-0.4,1-1,1s-1-0.4-1-1S693.7,88.9,694.3,88.9z"/>
	<polyline class="st12" points="512.3,92.7 548.7,133.6 585.1,111.7 621.5,93.7 694.3,92 	"/>
	<circle class="st13" cx="512.3" cy="92.7" r="1.5"/>
	<path class="st13" d="M512.3,90.7c-1.1,0-2,0.9-2,2s0.9,2,2,2c1.1,0,2-0.9,2-2S513.4,90.7,512.3,90.7z M512.3,91.7c0.6,0,1,0.4,1,1
		s-0.4,1-1,1c-0.6,0-1-0.4-1-1S511.7,91.7,512.3,91.7z"/>
	<circle class="st13" cx="548.7" cy="133.6" r="1.5"/>
	<path class="st13" d="M548.7,131.6c-1.1,0-2,0.9-2,2s0.9,2,2,2c1.1,0,2-0.9,2-2S549.8,131.6,548.7,131.6z M548.7,132.6
		c0.6,0,1,0.4,1,1s-0.4,1-1,1c-0.6,0-1-0.4-1-1S548.1,132.6,548.7,132.6z"/>
	<circle class="st13" cx="585.1" cy="111.7" r="1.5"/>
	<path class="st13" d="M585.1,109.7c-1.1,0-2,0.9-2,2s0.9,2,2,2c1.1,0,2-0.9,2-2S586.2,109.7,585.1,109.7z M585.1,110.7
		c0.6,0,1,0.4,1,1s-0.4,1-1,1c-0.6,0-1-0.4-1-1S584.5,110.7,585.1,110.7z"/>
	<circle class="st13" cx="621.5" cy="93.7" r="1.5"/>
	<path class="st13" d="M621.5,91.7c-1.1,0-2,0.9-2,2s0.9,2,2,2c1.1,0,2-0.9,2-2S622.6,91.7,621.5,91.7z M621.5,92.7c0.6,0,1,0.4,1,1
		s-0.4,1-1,1c-0.6,0-1-0.4-1-1S620.9,92.7,621.5,92.7z"/>
	<circle class="st13" cx="694.3" cy="92" r="1.5"/>
	<path class="st13" d="M694.3,90c-1.1,0-2,0.9-2,2s0.9,2,2,2s2-0.9,2-2S695.4,90,694.3,90z M694.3,91c0.6,0,1,0.4,1,1s-0.4,1-1,1
		s-1-0.4-1-1S693.7,91,694.3,91z"/>
	<rect x="512.3" y="254.6" class="st1" width="182" height="141"/>
	<line class="st6" x1="512.3" y1="395.6" x2="694.3" y2="395.6"/>
	<line class="st6" x1="512.3" y1="395.6" x2="512.3" y2="393.8"/>
	<line class="st6" x1="548.7" y1="395.6" x2="548.7" y2="393.8"/>
	<line class="st6" x1="585.1" y1="395.6" x2="585.1" y2="393.8"/>
	<line class="st6" x1="621.5" y1="395.6" x2="621.5" y2="393.8"/>
	<line class="st6" x1="694.3" y1="395.6" x2="694.3" y2="393.8"/>
	<text transform="matrix(1 0 0 1 509.2567 409.621)" class="st2 st3 st7">0</text>
	<text transform="matrix(1 0 0 1 545.6567 409.621)" class="st2 st3 st7">4</text>
	<text transform="matrix(1 0 0 1 582.0568 409.621)" class="st2 st3 st7">8</text>
	<text transform="matrix(1 0 0 1 615.4568 409.621)" class="st2 st3 st7">12</text>
	<text transform="matrix(1 0 0 1 688.2568 409.621)" class="st2 st3 st7">20</text>
	<line class="st6" x1="512.3" y1="395.6" x2="512.3" y2="254.6"/>
	<line class="st6" x1="512.3" y1="395.6" x2="514.1" y2="395.6"/>
	<line class="st6" x1="512.3" y1="367.4" x2="514.1" y2="367.4"/>
	<line class="st6" x1="512.3" y1="339.2" x2="514.1" y2="339.2"/>
	<line class="st6" x1="512.3" y1="311" x2="514.1" y2="311"/>
	<line class="st6" x1="512.3" y1="282.8" x2="514.1" y2="282.8"/>
	<line class="st6" x1="512.3" y1="254.6" x2="514.1" y2="254.6"/>
	<text transform="matrix(1 0 0 1 502.2567 399.121)" class="st2 st3 st7">0</text>
	<text transform="matrix(1 0 0 1 494.2567 370.921)" class="st2 st3 st7">0.2</text>
	<text transform="matrix(1 0 0 1 494.2567 342.721)" class="st2 st3 st7">0.4</text>
	<text transform="matrix(1 0 0 1 494.2567 314.521)" class="st2 st3 st7">0.6</text>
	<text transform="matrix(1 0 0 1 494.2567 286.321)" class="st2 st3 st7">0.8</text>
	<text transform="matrix(1 0 0 1 502.2567 258.121)" class="st2 st3 st7">1</text>
	<polyline class="st10" points="512.3,266.6 548.7,306.8 585.1,264.1 621.5,261.7 694.3,263.1 	"/>
	<circle class="st11" cx="512.3" cy="266.6" r="1.5"/>
	<path class="st11" d="M512.3,264.6c-1.1,0-2,0.9-2,2s0.9,2,2,2c1.1,0,2-0.9,2-2S513.4,264.6,512.3,264.6z M512.3,265.6
		c0.6,0,1,0.4,1,1s-0.4,1-1,1c-0.6,0-1-0.4-1-1S511.7,265.6,512.3,265.6z"/>
	<circle class="st11" cx="548.7" cy="306.8" r="1.5"/>
	<path class="st11" d="M548.7,304.8c-1.1,0-2,0.9-2,2s0.9,2,2,2c1.1,0,2-0.9,2-2S549.8,304.8,548.7,304.8z M548.7,305.8
		c0.6,0,1,0.4,1,1s-0.4,1-1,1c-0.6,0-1-0.4-1-1S548.1,305.8,548.7,305.8z"/>
	<circle class="st11" cx="585.1" cy="264.1" r="1.5"/>
	<path class="st11" d="M585.1,262.1c-1.1,0-2,0.9-2,2s0.9,2,2,2c1.1,0,2-0.9,2-2S586.2,262.1,585.1,262.1z M585.1,263.1
		c0.6,0,1,0.4,1,1s-0.4,1-1,1c-0.6,0-1-0.4-1-1S584.5,263.1,585.1,263.1z"/>
	<circle class="st11" cx="621.5" cy="261.7" r="1.5"/>
	<path class="st11" d="M621.5,259.7c-1.1,0-2,0.9-2,2s0.9,2,2,2c1.1,0,2-0.9,2-2S622.6,259.7,621.5,259.7z M621.5,260.7
		c0.6,0,1,0.4,1,1s-0.4,1-1,1c-0.6,0-1-0.4-1-1S620.9,260.7,621.5,260.7z"/>
	<circle class="st11" cx="694.3" cy="263.1" r="1.5"/>
	<path class="st11" d="M694.3,261.1c-1.1,0-2,0.9-2,2s0.9,2,2,2s2-0.9,2-2S695.4,261.1,694.3,261.1z M694.3,262.1c0.6,0,1,0.4,1,1
		s-0.4,1-1,1s-1-0.4-1-1S693.7,262.1,694.3,262.1z"/>
	<polyline class="st12" points="512.3,389.3 548.7,387.2 585.1,390 621.5,389.6 694.3,385.8 	"/>
	<circle class="st13" cx="512.3" cy="389.3" r="1.5"/>
	<path class="st13" d="M512.3,387.3c-1.1,0-2,0.9-2,2c0,1.1,0.9,2,2,2c1.1,0,2-0.9,2-2C514.3,388.2,513.4,387.3,512.3,387.3z
		 M512.3,388.3c0.6,0,1,0.4,1,1c0,0.6-0.4,1-1,1c-0.6,0-1-0.4-1-1C511.3,388.7,511.7,388.3,512.3,388.3z"/>
	<circle class="st13" cx="548.7" cy="387.2" r="1.5"/>
	<path class="st13" d="M548.7,385.2c-1.1,0-2,0.9-2,2c0,1.1,0.9,2,2,2c1.1,0,2-0.9,2-2C550.7,386.1,549.8,385.2,548.7,385.2z
		 M548.7,386.2c0.6,0,1,0.4,1,1c0,0.6-0.4,1-1,1c-0.6,0-1-0.4-1-1C547.7,386.6,548.1,386.2,548.7,386.2z"/>
	<circle class="st13" cx="585.1" cy="390" r="1.5"/>
	<path class="st13" d="M585.1,388c-1.1,0-2,0.9-2,2c0,1.1,0.9,2,2,2c1.1,0,2-0.9,2-2C587.1,388.9,586.2,388,585.1,388z M585.1,389
		c0.6,0,1,0.4,1,1c0,0.6-0.4,1-1,1c-0.6,0-1-0.4-1-1C584.1,389.4,584.5,389,585.1,389z"/>
	<circle class="st13" cx="621.5" cy="389.6" r="1.5"/>
	<path class="st13" d="M621.5,387.6c-1.1,0-2,0.9-2,2c0,1.1,0.9,2,2,2c1.1,0,2-0.9,2-2C623.5,388.5,622.6,387.6,621.5,387.6z
		 M621.5,388.6c0.6,0,1,0.4,1,1c0,0.6-0.4,1-1,1c-0.6,0-1-0.4-1-1C620.5,389.1,620.9,388.6,621.5,388.6z"/>
	<circle class="st13" cx="694.3" cy="385.8" r="1.5"/>
	<path class="st13" d="M694.3,383.8c-1.1,0-2,0.9-2,2c0,1.1,0.9,2,2,2s2-0.9,2-2C696.3,384.6,695.4,383.8,694.3,383.8z M694.3,384.8
		c0.6,0,1,0.4,1,1c0,0.6-0.4,1-1,1s-1-0.4-1-1C693.3,385.2,693.7,384.8,694.3,384.8z"/>
	<rect x="710.3" y="227.6" class="st1" width="123" height="26.5"/>
	<text transform="matrix(1 0 0 1 747.2568 238.621)" class="st3 st14">High visual reliability</text>
	<line class="st10" x1="714.3" y1="235.1" x2="744.3" y2="235.1"/>
	<circle class="st11" cx="729.3" cy="235.1" r="1.5"/>
	<path class="st11" d="M729.3,233.1c-1.1,0-2,0.9-2,2s0.9,2,2,2s2-0.9,2-2S730.4,233.1,729.3,233.1z M729.3,234.1c0.6,0,1,0.4,1,1
		s-0.4,1-1,1s-1-0.4-1-1S728.7,234.1,729.3,234.1z"/>
	<text transform="matrix(1 0 0 1 747.2568 250.121)" class="st3 st14">Low visual reliability</text>
	<line class="st12" x1="714.3" y1="246.6" x2="744.3" y2="246.6"/>
	<circle class="st13" cx="729.3" cy="246.6" r="1.5"/>
	<path class="st13" d="M729.3,244.6c-1.1,0-2,0.9-2,2s0.9,2,2,2s2-0.9,2-2S730.4,244.6,729.3,244.6z M729.3,245.6c0.6,0,1,0.4,1,1
		s-0.4,1-1,1s-1-0.4-1-1S728.7,245.6,729.3,245.6z"/>
</g>
<g>
	<g>
		<defs>
			<rect id="SVGID_00000067948141804958442350000015911373465997062026_" x="37.3" y="457.6" width="800" height="400"/>
		</defs>
		<clipPath id="SVGID_00000103956751180950257500000017519989082455049142_">
			<use xlink:href="#SVGID_00000067948141804958442350000015911373465997062026_"  style="overflow:visible;"/>
		</clipPath>
		
			<rect x="37.3" y="457.6" style="clip-path:url(#SVGID_00000103956751180950257500000017519989082455049142_);fill:#FFFFFF;" width="800" height="400"/>
	</g>
	<rect x="37.3" y="457.6" class="st1" width="800" height="400"/>
	<text transform="matrix(1 0 0 1 345.5067 474.121)" class="st2 st3 st4">Preliminary Data</text>
	<text transform="matrix(1 0 0 1 294.0067 852.121)" class="st2 st3 st5">Audiovisual spatial discrepancy (deg)</text>
	<text transform="matrix(-4.375000e-08 -1 1 -4.375000e-08 51.7568 752.7457)" class="st2 st3 st5">Proportion of reporting confident</text>
	<rect x="92.8" y="509.6" class="st1" width="182" height="141"/>
	<line class="st6" x1="92.8" y1="650.6" x2="274.8" y2="650.6"/>
	<line class="st6" x1="92.8" y1="650.6" x2="92.8" y2="648.8"/>
	<line class="st6" x1="129" y1="650.6" x2="129" y2="648.8"/>
	<line class="st6" x1="165.3" y1="650.6" x2="165.3" y2="648.8"/>
	<line class="st6" x1="201.6" y1="650.6" x2="201.6" y2="648.8"/>
	<line class="st6" x1="274.2" y1="650.6" x2="274.2" y2="648.8"/>
	<text transform="matrix(1 0 0 1 89.7568 664.621)" class="st2 st3 st7">0</text>
	<text transform="matrix(1 0 0 1 126.0376 664.621)" class="st2 st3 st7">4</text>
	<text transform="matrix(1 0 0 1 162.3184 664.621)" class="st2 st3 st7">8</text>
	<text transform="matrix(1 0 0 1 195.5992 664.621)" class="st2 st3 st7">12</text>
	<text transform="matrix(1 0 0 1 268.1608 664.621)" class="st2 st3 st7">20</text>
	<line class="st6" x1="92.8" y1="650.6" x2="92.8" y2="509.6"/>
	<line class="st6" x1="92.8" y1="650.6" x2="94.6" y2="650.6"/>
	<line class="st6" x1="92.8" y1="622.4" x2="94.6" y2="622.4"/>
	<line class="st6" x1="92.8" y1="594.2" x2="94.6" y2="594.2"/>
	<line class="st6" x1="92.8" y1="566" x2="94.6" y2="566"/>
	<line class="st6" x1="92.8" y1="537.8" x2="94.6" y2="537.8"/>
	<line class="st6" x1="92.8" y1="509.6" x2="94.6" y2="509.6"/>
	<text transform="matrix(1 0 0 1 82.7568 654.121)" class="st2 st3 st7">0</text>
	<text transform="matrix(1 0 0 1 74.7568 625.921)" class="st2 st3 st7">0.2</text>
	<text transform="matrix(1 0 0 1 74.7568 597.721)" class="st2 st3 st7">0.4</text>
	<text transform="matrix(1 0 0 1 74.7568 569.521)" class="st2 st3 st7">0.6</text>
	<text transform="matrix(1 0 0 1 74.7568 541.321)" class="st2 st3 st7">0.8</text>
	<text transform="matrix(1 0 0 1 82.7568 513.121)" class="st2 st3 st7">1</text>
	<text transform="matrix(-4.375000e-08 -1 1 -4.375000e-08 68.7568 629.6207)" class="st2 st3 st8">Auditory confidence</text>
	<text transform="matrix(1 0 0 1 159.7569 491.246)" class="st9 st8">Heuristic</text>
	<text transform="matrix(1 0 0 1 153.7569 505.246)" class="st9 st8"> participant</text>
	<polyline class="st10" points="92.8,541 129.2,544.9 165.6,546.8 202,550.7 274.8,552.7 	"/>
	<circle class="st11" cx="92.8" cy="541" r="1.5"/>
	<path class="st11" d="M92.8,539c-1.1,0-2,0.9-2,2s0.9,2,2,2s2-0.9,2-2S93.9,539,92.8,539z M92.8,540c0.6,0,1,0.4,1,1s-0.4,1-1,1
		s-1-0.4-1-1S92.2,540,92.8,540z"/>
	<circle class="st11" cx="129.2" cy="544.9" r="1.5"/>
	<path class="st11" d="M129.2,542.9c-1.1,0-2,0.9-2,2c0,1.1,0.9,2,2,2s2-0.9,2-2C131.2,543.8,130.3,542.9,129.2,542.9z M129.2,543.9
		c0.6,0,1,0.4,1,1c0,0.6-0.4,1-1,1c-0.6,0-1-0.4-1-1C128.2,544.3,128.6,543.9,129.2,543.9z"/>
	<circle class="st11" cx="165.6" cy="546.8" r="1.5"/>
	<path class="st11" d="M165.6,544.8c-1.1,0-2,0.9-2,2c0,1.1,0.9,2,2,2s2-0.9,2-2C167.6,545.7,166.7,544.8,165.6,544.8z M165.6,545.8
		c0.6,0,1,0.4,1,1c0,0.6-0.4,1-1,1c-0.6,0-1-0.4-1-1C164.6,546.3,165,545.8,165.6,545.8z"/>
	<circle class="st11" cx="202" cy="550.7" r="1.5"/>
	<path class="st11" d="M202,548.7c-1.1,0-2,0.9-2,2c0,1.1,0.9,2,2,2s2-0.9,2-2C204,549.6,203.1,548.7,202,548.7z M202,549.7
		c0.6,0,1,0.4,1,1c0,0.6-0.4,1-1,1c-0.6,0-1-0.4-1-1C201,550.2,201.4,549.7,202,549.7z"/>
	<circle class="st11" cx="274.8" cy="552.7" r="1.5"/>
	<path class="st11" d="M274.8,550.7c-1.1,0-2,0.9-2,2c0,1.1,0.9,2,2,2c1.1,0,2-0.9,2-2C276.8,551.6,275.9,550.7,274.8,550.7z
		 M274.8,551.7c0.6,0,1,0.4,1,1c0,0.6-0.4,1-1,1c-0.6,0-1-0.4-1-1C273.8,552.2,274.2,551.7,274.8,551.7z"/>
	<polygon class="st16" points="129.2,555 165.6,554.2 202,558.3 274.8,563.5 274.8,541.9 202,543.2 165.6,539.5 129.2,534.7 
		92.8,534 92.8,547.9 	"/>
	<polyline class="st12" points="92.8,546.8 129.2,564.5 165.6,556.6 202,556.6 274.8,548.8 	"/>
	<circle class="st13" cx="92.8" cy="546.8" r="1.5"/>
	<path class="st13" d="M92.8,544.8c-1.1,0-2,0.9-2,2c0,1.1,0.9,2,2,2s2-0.9,2-2C94.8,545.7,93.9,544.8,92.8,544.8z M92.8,545.8
		c0.6,0,1,0.4,1,1c0,0.6-0.4,1-1,1s-1-0.4-1-1C91.8,546.3,92.2,545.8,92.8,545.8z"/>
	<circle class="st13" cx="129.2" cy="564.5" r="1.5"/>
	<path class="st13" d="M129.2,562.5c-1.1,0-2,0.9-2,2c0,1.1,0.9,2,2,2s2-0.9,2-2C131.2,563.3,130.3,562.5,129.2,562.5z M129.2,563.5
		c0.6,0,1,0.4,1,1c0,0.6-0.4,1-1,1c-0.6,0-1-0.4-1-1C128.2,563.9,128.6,563.5,129.2,563.5z"/>
	<circle class="st13" cx="165.6" cy="556.6" r="1.5"/>
	<path class="st13" d="M165.6,554.6c-1.1,0-2,0.9-2,2c0,1.1,0.9,2,2,2s2-0.9,2-2C167.6,555.5,166.7,554.6,165.6,554.6z M165.6,555.6
		c0.6,0,1,0.4,1,1c0,0.6-0.4,1-1,1c-0.6,0-1-0.4-1-1C164.6,556.1,165,555.6,165.6,555.6z"/>
	<circle class="st13" cx="202" cy="556.6" r="1.5"/>
	<path class="st13" d="M202,554.6c-1.1,0-2,0.9-2,2c0,1.1,0.9,2,2,2s2-0.9,2-2C204,555.5,203.1,554.6,202,554.6z M202,555.6
		c0.6,0,1,0.4,1,1c0,0.6-0.4,1-1,1c-0.6,0-1-0.4-1-1C201,556.1,201.4,555.6,202,555.6z"/>
	<circle class="st13" cx="274.8" cy="548.8" r="1.5"/>
	<path class="st13" d="M274.8,546.8c-1.1,0-2,0.9-2,2c0,1.1,0.9,2,2,2c1.1,0,2-0.9,2-2C276.8,547.7,275.9,546.8,274.8,546.8z
		 M274.8,547.8c0.6,0,1,0.4,1,1c0,0.6-0.4,1-1,1c-0.6,0-1-0.4-1-1C273.8,548.2,274.2,547.8,274.8,547.8z"/>
	<polygon class="st17" points="129.2,575.9 165.6,564.5 202,564.5 274.8,559.3 274.8,538.3 202,548.8 165.6,548.8 129.2,553 
		92.8,539.5 92.8,554.2 	"/>
	<line class="st18" x1="92.8" y1="569.5" x2="274.8" y2="569.5"/>
	<line class="st18" x1="92.8" y1="569.5" x2="274.8" y2="569.5"/>
	<rect x="92.8" y="678.6" class="st1" width="182" height="141"/>
	<line class="st6" x1="92.8" y1="819.6" x2="274.8" y2="819.6"/>
	<line class="st6" x1="92.8" y1="819.6" x2="92.8" y2="817.8"/>
	<line class="st6" x1="129" y1="819.6" x2="129" y2="817.8"/>
	<line class="st6" x1="165.3" y1="819.6" x2="165.3" y2="817.8"/>
	<line class="st6" x1="201.6" y1="819.6" x2="201.6" y2="817.8"/>
	<line class="st6" x1="274.2" y1="819.6" x2="274.2" y2="817.8"/>
	<text transform="matrix(1 0 0 1 89.7568 833.621)" class="st2 st3 st7">0</text>
	<text transform="matrix(1 0 0 1 126.0376 833.621)" class="st2 st3 st7">4</text>
	<text transform="matrix(1 0 0 1 162.3184 833.621)" class="st2 st3 st7">8</text>
	<text transform="matrix(1 0 0 1 195.5992 833.621)" class="st2 st3 st7">12</text>
	<text transform="matrix(1 0 0 1 268.1608 833.621)" class="st2 st3 st7">20</text>
	<line class="st6" x1="92.8" y1="819.6" x2="92.8" y2="678.6"/>
	<line class="st6" x1="92.8" y1="819.6" x2="94.6" y2="819.6"/>
	<line class="st6" x1="92.8" y1="791.4" x2="94.6" y2="791.4"/>
	<line class="st6" x1="92.8" y1="763.2" x2="94.6" y2="763.2"/>
	<line class="st6" x1="92.8" y1="735" x2="94.6" y2="735"/>
	<line class="st6" x1="92.8" y1="706.8" x2="94.6" y2="706.8"/>
	<line class="st6" x1="92.8" y1="678.6" x2="94.6" y2="678.6"/>
	<text transform="matrix(1 0 0 1 82.7568 823.121)" class="st2 st3 st7">0</text>
	<text transform="matrix(1 0 0 1 74.7568 794.921)" class="st2 st3 st7">0.2</text>
	<text transform="matrix(1 0 0 1 74.7568 766.721)" class="st2 st3 st7">0.4</text>
	<text transform="matrix(1 0 0 1 74.7568 738.521)" class="st2 st3 st7">0.6</text>
	<text transform="matrix(1 0 0 1 74.7568 710.321)" class="st2 st3 st7">0.8</text>
	<text transform="matrix(1 0 0 1 82.7568 682.121)" class="st2 st3 st7">1</text>
	<text transform="matrix(-4.375000e-08 -1 1 -4.375000e-08 68.7568 792.6207)" class="st2 st3 st8">Visual confidence</text>
	<polyline class="st10" points="92.8,686.5 129.2,694.3 165.6,694.3 202,690.4 274.8,713.9 	"/>
	<circle class="st11" cx="92.8" cy="686.5" r="1.5"/>
	<path class="st11" d="M92.8,684.5c-1.1,0-2,0.9-2,2c0,1.1,0.9,2,2,2s2-0.9,2-2C94.8,685.3,93.9,684.5,92.8,684.5z M92.8,685.5
		c0.6,0,1,0.4,1,1c0,0.6-0.4,1-1,1s-1-0.4-1-1C91.8,685.9,92.2,685.5,92.8,685.5z"/>
	<circle class="st11" cx="129.2" cy="694.3" r="1.5"/>
	<path class="st11" d="M129.2,692.3c-1.1,0-2,0.9-2,2c0,1.1,0.9,2,2,2s2-0.9,2-2C131.2,693.2,130.3,692.3,129.2,692.3z M129.2,693.3
		c0.6,0,1,0.4,1,1c0,0.6-0.4,1-1,1c-0.6,0-1-0.4-1-1C128.2,693.7,128.6,693.3,129.2,693.3z"/>
	<circle class="st11" cx="165.6" cy="694.3" r="1.5"/>
	<path class="st11" d="M165.6,692.3c-1.1,0-2,0.9-2,2c0,1.1,0.9,2,2,2s2-0.9,2-2C167.6,693.2,166.7,692.3,165.6,692.3z M165.6,693.3
		c0.6,0,1,0.4,1,1c0,0.6-0.4,1-1,1c-0.6,0-1-0.4-1-1C164.6,693.7,165,693.3,165.6,693.3z"/>
	<circle class="st11" cx="202" cy="690.4" r="1.5"/>
	<path class="st11" d="M202,688.4c-1.1,0-2,0.9-2,2c0,1.1,0.9,2,2,2s2-0.9,2-2C204,689.3,203.1,688.4,202,688.4z M202,689.4
		c0.6,0,1,0.4,1,1c0,0.6-0.4,1-1,1c-0.6,0-1-0.4-1-1C201,689.8,201.4,689.4,202,689.4z"/>
	<circle class="st11" cx="274.8" cy="713.9" r="1.5"/>
	<path class="st11" d="M274.8,711.9c-1.1,0-2,0.9-2,2c0,1.1,0.9,2,2,2c1.1,0,2-0.9,2-2C276.8,712.8,275.9,711.9,274.8,711.9z
		 M274.8,712.9c0.6,0,1,0.4,1,1c0,0.6-0.4,1-1,1c-0.6,0-1-0.4-1-1C273.8,713.3,274.2,712.9,274.8,712.9z"/>
	<polygon class="st16" points="92.8,690.3 129.2,701.7 165.6,699.5 202,695 274.8,724 274.8,703.7 202,685.8 165.6,689.1 
		129.2,686.9 92.8,682.6 	"/>
	<polyline class="st12" points="92.8,729.5 129.2,757 165.6,753 202,758.9 274.8,757 	"/>
	<circle class="st13" cx="92.8" cy="729.5" r="1.5"/>
	<path class="st13" d="M92.8,727.5c-1.1,0-2,0.9-2,2c0,1.1,0.9,2,2,2s2-0.9,2-2C94.8,728.4,93.9,727.5,92.8,727.5z M92.8,728.5
		c0.6,0,1,0.4,1,1c0,0.6-0.4,1-1,1s-1-0.4-1-1C91.8,729,92.2,728.5,92.8,728.5z"/>
	<circle class="st13" cx="129.2" cy="757" r="1.5"/>
	<path class="st13" d="M129.2,755c-1.1,0-2,0.9-2,2c0,1.1,0.9,2,2,2s2-0.9,2-2C131.2,755.8,130.3,755,129.2,755z M129.2,756
		c0.6,0,1,0.4,1,1c0,0.6-0.4,1-1,1c-0.6,0-1-0.4-1-1C128.2,756.4,128.6,756,129.2,756z"/>
	<circle class="st13" cx="165.6" cy="753" r="1.5"/>
	<path class="st13" d="M165.6,751c-1.1,0-2,0.9-2,2c0,1.1,0.9,2,2,2s2-0.9,2-2C167.6,751.9,166.7,751,165.6,751z M165.6,752
		c0.6,0,1,0.4,1,1c0,0.6-0.4,1-1,1c-0.6,0-1-0.4-1-1C164.6,752.5,165,752,165.6,752z"/>
	<circle class="st13" cx="202" cy="758.9" r="1.5"/>
	<path class="st13" d="M202,756.9c-1.1,0-2,0.9-2,2c0,1.1,0.9,2,2,2s2-0.9,2-2C204,757.8,203.1,756.9,202,756.9z M202,757.9
		c0.6,0,1,0.4,1,1c0,0.6-0.4,1-1,1c-0.6,0-1-0.4-1-1C201,758.4,201.4,757.9,202,757.9z"/>
	<circle class="st13" cx="274.8" cy="757" r="1.5"/>
	<path class="st13" d="M274.8,755c-1.1,0-2,0.9-2,2c0,1.1,0.9,2,2,2c1.1,0,2-0.9,2-2C276.8,755.8,275.9,755,274.8,755z M274.8,756
		c0.6,0,1,0.4,1,1c0,0.6-0.4,1-1,1c-0.6,0-1-0.4-1-1C273.8,756.4,274.2,756,274.8,756z"/>
	<polygon class="st17" points="129.2,768.6 165.6,761.3 202,767.1 274.8,768.6 274.8,745.3 202,750.7 165.6,744.7 129.2,745.3 
		92.8,721.6 92.8,737.5 	"/>
	<line class="st19" x1="92.8" y1="696.2" x2="274.8" y2="696.2"/>
	<line class="st20" x1="92.8" y1="784.4" x2="274.8" y2="784.4"/>
	<rect x="302.8" y="509.6" class="st1" width="181.5" height="141"/>
	<line class="st6" x1="302.8" y1="650.6" x2="484.3" y2="650.6"/>
	<line class="st6" x1="302.8" y1="650.6" x2="302.8" y2="648.8"/>
	<line class="st6" x1="338.9" y1="650.6" x2="338.9" y2="648.8"/>
	<line class="st6" x1="375.1" y1="650.6" x2="375.1" y2="648.8"/>
	<line class="st6" x1="411.3" y1="650.6" x2="411.3" y2="648.8"/>
	<line class="st6" x1="483.7" y1="650.6" x2="483.7" y2="648.8"/>
	<text transform="matrix(1 0 0 1 299.7568 664.621)" class="st2 st3 st7">0</text>
	<text transform="matrix(1 0 0 1 335.9379 664.621)" class="st2 st3 st7">4</text>
	<text transform="matrix(1 0 0 1 372.119 664.621)" class="st2 st3 st7">8</text>
	<text transform="matrix(1 0 0 1 405.3002 664.621)" class="st2 st3 st7">12</text>
	<text transform="matrix(1 0 0 1 477.6624 664.621)" class="st2 st3 st7">20</text>
	<line class="st6" x1="302.8" y1="650.6" x2="302.8" y2="509.6"/>
	<line class="st6" x1="302.8" y1="650.6" x2="304.6" y2="650.6"/>
	<line class="st6" x1="302.8" y1="622.4" x2="304.6" y2="622.4"/>
	<line class="st6" x1="302.8" y1="594.2" x2="304.6" y2="594.2"/>
	<line class="st6" x1="302.8" y1="566" x2="304.6" y2="566"/>
	<line class="st6" x1="302.8" y1="537.8" x2="304.6" y2="537.8"/>
	<line class="st6" x1="302.8" y1="509.6" x2="304.6" y2="509.6"/>
	<text transform="matrix(1 0 0 1 292.7568 654.121)" class="st2 st3 st7">0</text>
	<text transform="matrix(1 0 0 1 284.7568 625.921)" class="st2 st3 st7">0.2</text>
	<text transform="matrix(1 0 0 1 284.7568 597.721)" class="st2 st3 st7">0.4</text>
	<text transform="matrix(1 0 0 1 284.7568 569.521)" class="st2 st3 st7">0.6</text>
	<text transform="matrix(1 0 0 1 284.7568 541.321)" class="st2 st3 st7">0.8</text>
	<text transform="matrix(1 0 0 1 292.7568 513.121)" class="st2 st3 st7">1</text>
	<text transform="matrix(1 0 0 1 363.5071 491.246)" class="st9 st8">Suboptimal</text>
	<text transform="matrix(1 0 0 1 363.5071 505.246)" class="st9 st8"> participant</text>
	<polyline class="st10" points="302.8,512.6 339.1,521.4 375.4,524.3 411.7,556.6 484.3,586 	"/>
	<circle class="st11" cx="302.8" cy="512.6" r="1.5"/>
	<path class="st11" d="M302.8,510.6c-1.1,0-2,0.9-2,2c0,1.1,0.9,2,2,2c1.1,0,2-0.9,2-2C304.8,511.5,303.9,510.6,302.8,510.6z
		 M302.8,511.6c0.6,0,1,0.4,1,1s-0.4,1-1,1c-0.6,0-1-0.4-1-1S302.2,511.6,302.8,511.6z"/>
	<circle class="st11" cx="339.1" cy="521.4" r="1.5"/>
	<path class="st11" d="M339.1,519.4c-1.1,0-2,0.9-2,2s0.9,2,2,2c1.1,0,2-0.9,2-2S340.2,519.4,339.1,519.4z M339.1,520.4
		c0.6,0,1,0.4,1,1s-0.4,1-1,1c-0.6,0-1-0.4-1-1S338.5,520.4,339.1,520.4z"/>
	<circle class="st11" cx="375.4" cy="524.3" r="1.5"/>
	<path class="st11" d="M375.4,522.3c-1.1,0-2,0.9-2,2s0.9,2,2,2c1.1,0,2-0.9,2-2S376.5,522.3,375.4,522.3z M375.4,523.3
		c0.6,0,1,0.4,1,1s-0.4,1-1,1c-0.6,0-1-0.4-1-1S374.8,523.3,375.4,523.3z"/>
	<circle class="st11" cx="411.7" cy="556.6" r="1.5"/>
	<path class="st11" d="M411.7,554.6c-1.1,0-2,0.9-2,2c0,1.1,0.9,2,2,2s2-0.9,2-2C413.7,555.5,412.8,554.6,411.7,554.6z M411.7,555.6
		c0.6,0,1,0.4,1,1c0,0.6-0.4,1-1,1s-1-0.4-1-1C410.7,556.1,411.1,555.6,411.7,555.6z"/>
	<circle class="st11" cx="484.3" cy="586" r="1.5"/>
	<path class="st11" d="M484.3,584c-1.1,0-2,0.9-2,2c0,1.1,0.9,2,2,2s2-0.9,2-2C486.3,584.9,485.4,584,484.3,584z M484.3,585
		c0.6,0,1,0.4,1,1c0,0.6-0.4,1-1,1s-1-0.4-1-1C483.3,585.4,483.7,585,484.3,585z"/>
	<polygon class="st16" points="302.8,509.7 302.8,515.5 339.1,529.3 375.4,530.5 411.7,566.2 484.3,600.3 484.3,571.7 411.7,547 
		375.4,518.1 339.1,513.4 	"/>
	<polyline class="st12" points="302.8,556.6 339.1,562.5 375.4,556.6 411.7,574.2 484.3,603.6 	"/>
	<circle class="st13" cx="302.8" cy="556.6" r="1.5"/>
	<path class="st13" d="M302.8,554.6c-1.1,0-2,0.9-2,2c0,1.1,0.9,2,2,2c1.1,0,2-0.9,2-2C304.8,555.5,303.9,554.6,302.8,554.6z
		 M302.8,555.6c0.6,0,1,0.4,1,1c0,0.6-0.4,1-1,1c-0.6,0-1-0.4-1-1C301.8,556.1,302.2,555.6,302.8,555.6z"/>
	<circle class="st13" cx="339.1" cy="562.5" r="1.5"/>
	<path class="st13" d="M339.1,560.5c-1.1,0-2,0.9-2,2c0,1.1,0.9,2,2,2c1.1,0,2-0.9,2-2C341.1,561.4,340.2,560.5,339.1,560.5z
		 M339.1,561.5c0.6,0,1,0.4,1,1c0,0.6-0.4,1-1,1c-0.6,0-1-0.4-1-1C338.1,561.9,338.5,561.5,339.1,561.5z"/>
	<circle class="st13" cx="375.4" cy="556.6" r="1.5"/>
	<path class="st13" d="M375.4,554.6c-1.1,0-2,0.9-2,2c0,1.1,0.9,2,2,2c1.1,0,2-0.9,2-2C377.4,555.5,376.5,554.6,375.4,554.6z
		 M375.4,555.6c0.6,0,1,0.4,1,1c0,0.6-0.4,1-1,1c-0.6,0-1-0.4-1-1C374.4,556.1,374.8,555.6,375.4,555.6z"/>
	<circle class="st13" cx="411.7" cy="574.2" r="1.5"/>
	<path class="st13" d="M411.7,572.2c-1.1,0-2,0.9-2,2c0,1.1,0.9,2,2,2s2-0.9,2-2C413.7,573.1,412.8,572.2,411.7,572.2z M411.7,573.2
		c0.6,0,1,0.4,1,1c0,0.6-0.4,1-1,1s-1-0.4-1-1C410.7,573.7,411.1,573.2,411.7,573.2z"/>
	<circle class="st13" cx="484.3" cy="603.6" r="1.5"/>
	<path class="st13" d="M484.3,601.6c-1.1,0-2,0.9-2,2c0,1.1,0.9,2,2,2s2-0.9,2-2C486.3,602.5,485.4,601.6,484.3,601.6z M484.3,602.6
		c0.6,0,1,0.4,1,1c0,0.6-0.4,1-1,1s-1-0.4-1-1C483.3,603.1,483.7,602.6,484.3,602.6z"/>
	<polygon class="st17" points="302.8,566.2 339.1,576.4 375.4,566.2 411.7,584.4 484.3,617.2 484.3,590.1 411.7,564.1 375.4,547 
		339.1,548.6 302.8,547 	"/>
	<line class="st18" x1="302.8" y1="550.2" x2="484.3" y2="550.2"/>
	<line class="st18" x1="302.8" y1="550.2" x2="484.3" y2="550.2"/>
	<rect x="302.8" y="678.6" class="st1" width="181.5" height="141"/>
	<line class="st6" x1="302.8" y1="819.6" x2="484.3" y2="819.6"/>
	<line class="st6" x1="302.8" y1="819.6" x2="302.8" y2="817.8"/>
	<line class="st6" x1="338.9" y1="819.6" x2="338.9" y2="817.8"/>
	<line class="st6" x1="375.1" y1="819.6" x2="375.1" y2="817.8"/>
	<line class="st6" x1="411.3" y1="819.6" x2="411.3" y2="817.8"/>
	<line class="st6" x1="483.7" y1="819.6" x2="483.7" y2="817.8"/>
	<text transform="matrix(1 0 0 1 299.7568 833.621)" class="st2 st3 st7">0</text>
	<text transform="matrix(1 0 0 1 335.9379 833.621)" class="st2 st3 st7">4</text>
	<text transform="matrix(1 0 0 1 372.119 833.621)" class="st2 st3 st7">8</text>
	<text transform="matrix(1 0 0 1 405.3002 833.621)" class="st2 st3 st7">12</text>
	<text transform="matrix(1 0 0 1 477.6624 833.621)" class="st2 st3 st7">20</text>
	<line class="st6" x1="302.8" y1="819.6" x2="302.8" y2="678.6"/>
	<line class="st6" x1="302.8" y1="819.6" x2="304.6" y2="819.6"/>
	<line class="st6" x1="302.8" y1="791.4" x2="304.6" y2="791.4"/>
	<line class="st6" x1="302.8" y1="763.2" x2="304.6" y2="763.2"/>
	<line class="st6" x1="302.8" y1="735" x2="304.6" y2="735"/>
	<line class="st6" x1="302.8" y1="706.8" x2="304.6" y2="706.8"/>
	<line class="st6" x1="302.8" y1="678.6" x2="304.6" y2="678.6"/>
	<text transform="matrix(1 0 0 1 292.7568 823.121)" class="st2 st3 st7">0</text>
	<text transform="matrix(1 0 0 1 284.7568 794.921)" class="st2 st3 st7">0.2</text>
	<text transform="matrix(1 0 0 1 284.7568 766.721)" class="st2 st3 st7">0.4</text>
	<text transform="matrix(1 0 0 1 284.7568 738.521)" class="st2 st3 st7">0.6</text>
	<text transform="matrix(1 0 0 1 284.7568 710.321)" class="st2 st3 st7">0.8</text>
	<text transform="matrix(1 0 0 1 292.7568 682.121)" class="st2 st3 st7">1</text>
	<polyline class="st10" points="302.8,681.6 339.1,678.6 375.4,678.6 411.7,681.6 484.3,696.2 	"/>
	<circle class="st11" cx="302.8" cy="681.6" r="1.5"/>
	<path class="st11" d="M302.8,679.6c-1.1,0-2,0.9-2,2c0,1.1,0.9,2,2,2c1.1,0,2-0.9,2-2C304.8,680.5,303.9,679.6,302.8,679.6z
		 M302.8,680.6c0.6,0,1,0.4,1,1c0,0.6-0.4,1-1,1c-0.6,0-1-0.4-1-1C301.8,681,302.2,680.6,302.8,680.6z"/>
	<circle class="st11" cx="339.1" cy="678.6" r="1.5"/>
	<path class="st11" d="M339.1,676.6c-1.1,0-2,0.9-2,2c0,1.1,0.9,2,2,2c1.1,0,2-0.9,2-2C341.1,677.5,340.2,676.6,339.1,676.6z
		 M339.1,677.6c0.6,0,1,0.4,1,1c0,0.6-0.4,1-1,1c-0.6,0-1-0.4-1-1C338.1,678.1,338.5,677.6,339.1,677.6z"/>
	<circle class="st11" cx="375.4" cy="678.6" r="1.5"/>
	<path class="st11" d="M375.4,676.6c-1.1,0-2,0.9-2,2c0,1.1,0.9,2,2,2c1.1,0,2-0.9,2-2C377.4,677.5,376.5,676.6,375.4,676.6z
		 M375.4,677.6c0.6,0,1,0.4,1,1c0,0.6-0.4,1-1,1c-0.6,0-1-0.4-1-1C374.4,678.1,374.8,677.6,375.4,677.6z"/>
	<circle class="st11" cx="411.7" cy="681.6" r="1.5"/>
	<path class="st11" d="M411.7,679.6c-1.1,0-2,0.9-2,2c0,1.1,0.9,2,2,2s2-0.9,2-2C413.7,680.5,412.8,679.6,411.7,679.6z M411.7,680.6
		c0.6,0,1,0.4,1,1c0,0.6-0.4,1-1,1s-1-0.4-1-1C410.7,681,411.1,680.6,411.7,680.6z"/>
	<circle class="st11" cx="484.3" cy="696.2" r="1.5"/>
	<path class="st11" d="M484.3,694.2c-1.1,0-2,0.9-2,2c0,1.1,0.9,2,2,2s2-0.9,2-2C486.3,695.1,485.4,694.2,484.3,694.2z M484.3,695.2
		c0.6,0,1,0.4,1,1c0,0.6-0.4,1-1,1s-1-0.4-1-1C483.3,695.7,483.7,695.2,484.3,695.2z"/>
	<path class="st16" d="M411.7,678.7l-36.3,0l36.3,5.8l72.6,21.3v-19L411.7,678.7z M302.8,678.7v5.8l36.3-5.8L302.8,678.7z"/>
	<polyline class="st12" points="302.8,781.4 339.1,755 375.4,778.5 411.7,784.4 484.3,807.9 	"/>
	<circle class="st13" cx="302.8" cy="781.4" r="1.5"/>
	<path class="st13" d="M302.8,779.4c-1.1,0-2,0.9-2,2c0,1.1,0.9,2,2,2c1.1,0,2-0.9,2-2C304.8,780.3,303.9,779.4,302.8,779.4z
		 M302.8,780.4c0.6,0,1,0.4,1,1c0,0.6-0.4,1-1,1c-0.6,0-1-0.4-1-1C301.8,780.9,302.2,780.4,302.8,780.4z"/>
	<circle class="st13" cx="339.1" cy="755" r="1.5"/>
	<path class="st13" d="M339.1,753c-1.1,0-2,0.9-2,2c0,1.1,0.9,2,2,2c1.1,0,2-0.9,2-2C341.1,753.9,340.2,753,339.1,753z M339.1,754
		c0.6,0,1,0.4,1,1c0,0.6-0.4,1-1,1c-0.6,0-1-0.4-1-1C338.1,754.4,338.5,754,339.1,754z"/>
	<circle class="st13" cx="375.4" cy="778.5" r="1.5"/>
	<path class="st13" d="M375.4,776.5c-1.1,0-2,0.9-2,2c0,1.1,0.9,2,2,2c1.1,0,2-0.9,2-2C377.4,777.4,376.5,776.5,375.4,776.5z
		 M375.4,777.5c0.6,0,1,0.4,1,1c0,0.6-0.4,1-1,1c-0.6,0-1-0.4-1-1C374.4,777.9,374.8,777.5,375.4,777.5z"/>
	<circle class="st13" cx="411.7" cy="784.4" r="1.5"/>
	<path class="st13" d="M411.7,782.4c-1.1,0-2,0.9-2,2c0,1.1,0.9,2,2,2s2-0.9,2-2C413.7,783.3,412.8,782.4,411.7,782.4z M411.7,783.4
		c0.6,0,1,0.4,1,1c0,0.6-0.4,1-1,1s-1-0.4-1-1C410.7,783.8,411.1,783.4,411.7,783.4z"/>
	<circle class="st13" cx="484.3" cy="807.9" r="1.5"/>
	<path class="st13" d="M484.3,805.9c-1.1,0-2,0.9-2,2c0,1.1,0.9,2,2,2s2-0.9,2-2C486.3,806.8,485.4,805.9,484.3,805.9z M484.3,806.9
		c0.6,0,1,0.4,1,1c0,0.6-0.4,1-1,1s-1-0.4-1-1C483.3,807.3,483.7,806.9,484.3,806.9z"/>
	<polygon class="st17" points="302.8,790.5 339.1,769.3 375.4,787.7 411.7,793.2 484.3,815.8 484.3,799.9 411.7,775.6 375.4,769.2 
		339.1,740.7 302.8,772.4 	"/>
	<line class="st19" x1="302.8" y1="683.9" x2="484.3" y2="683.9"/>
	<line class="st20" x1="302.8" y1="787.9" x2="484.3" y2="787.9"/>
	<rect x="512.3" y="509.6" class="st1" width="182" height="141"/>
	<line class="st6" x1="512.3" y1="650.6" x2="694.3" y2="650.6"/>
	<line class="st6" x1="512.3" y1="650.6" x2="512.3" y2="648.8"/>
	<line class="st6" x1="548.5" y1="650.6" x2="548.5" y2="648.8"/>
	<line class="st6" x1="584.8" y1="650.6" x2="584.8" y2="648.8"/>
	<line class="st6" x1="621.1" y1="650.6" x2="621.1" y2="648.8"/>
	<line class="st6" x1="693.7" y1="650.6" x2="693.7" y2="648.8"/>
	<text transform="matrix(1 0 0 1 509.2567 664.621)" class="st2 st3 st7">0</text>
	<text transform="matrix(1 0 0 1 545.5376 664.621)" class="st2 st3 st7">4</text>
	<text transform="matrix(1 0 0 1 581.8184 664.621)" class="st2 st3 st7">8</text>
	<text transform="matrix(1 0 0 1 615.0991 664.621)" class="st2 st3 st7">12</text>
	<text transform="matrix(1 0 0 1 687.6608 664.621)" class="st2 st3 st7">20</text>
	<line class="st6" x1="512.3" y1="650.6" x2="512.3" y2="509.6"/>
	<line class="st6" x1="512.3" y1="650.6" x2="514.1" y2="650.6"/>
	<line class="st6" x1="512.3" y1="622.4" x2="514.1" y2="622.4"/>
	<line class="st6" x1="512.3" y1="594.2" x2="514.1" y2="594.2"/>
	<line class="st6" x1="512.3" y1="566" x2="514.1" y2="566"/>
	<line class="st6" x1="512.3" y1="537.8" x2="514.1" y2="537.8"/>
	<line class="st6" x1="512.3" y1="509.6" x2="514.1" y2="509.6"/>
	<text transform="matrix(1 0 0 1 502.2567 654.121)" class="st2 st3 st7">0</text>
	<text transform="matrix(1 0 0 1 494.2567 625.921)" class="st2 st3 st7">0.2</text>
	<text transform="matrix(1 0 0 1 494.2567 597.721)" class="st2 st3 st7">0.4</text>
	<text transform="matrix(1 0 0 1 494.2567 569.521)" class="st2 st3 st7">0.6</text>
	<text transform="matrix(1 0 0 1 494.2567 541.321)" class="st2 st3 st7">0.8</text>
	<text transform="matrix(1 0 0 1 502.2567 513.121)" class="st2 st3 st7">1</text>
	<text transform="matrix(1 0 0 1 582.2573 491.246)" class="st9 st8">Optimal</text>
	<text transform="matrix(1 0 0 1 573.2573 505.246)" class="st9 st8"> participant</text>
	<polyline class="st10" points="512.3,541.9 548.7,574.2 585.1,562.5 621.5,565.4 694.3,544.9 	"/>
	<circle class="st11" cx="512.3" cy="541.9" r="1.5"/>
	<path class="st11" d="M512.3,539.9c-1.1,0-2,0.9-2,2s0.9,2,2,2c1.1,0,2-0.9,2-2S513.4,539.9,512.3,539.9z M512.3,540.9
		c0.6,0,1,0.4,1,1c0,0.6-0.4,1-1,1c-0.6,0-1-0.4-1-1C511.3,541.4,511.7,540.9,512.3,540.9z"/>
	<circle class="st11" cx="548.7" cy="574.2" r="1.5"/>
	<path class="st11" d="M548.7,572.2c-1.1,0-2,0.9-2,2c0,1.1,0.9,2,2,2c1.1,0,2-0.9,2-2C550.7,573.1,549.8,572.2,548.7,572.2z
		 M548.7,573.2c0.6,0,1,0.4,1,1c0,0.6-0.4,1-1,1c-0.6,0-1-0.4-1-1C547.7,573.7,548.1,573.2,548.7,573.2z"/>
	<circle class="st11" cx="585.1" cy="562.5" r="1.5"/>
	<path class="st11" d="M585.1,560.5c-1.1,0-2,0.9-2,2c0,1.1,0.9,2,2,2c1.1,0,2-0.9,2-2C587.1,561.4,586.2,560.5,585.1,560.5z
		 M585.1,561.5c0.6,0,1,0.4,1,1c0,0.6-0.4,1-1,1c-0.6,0-1-0.4-1-1C584.1,561.9,584.5,561.5,585.1,561.5z"/>
	<circle class="st11" cx="621.5" cy="565.4" r="1.5"/>
	<path class="st11" d="M621.5,563.4c-1.1,0-2,0.9-2,2c0,1.1,0.9,2,2,2c1.1,0,2-0.9,2-2C623.5,564.3,622.6,563.4,621.5,563.4z
		 M621.5,564.4c0.6,0,1,0.4,1,1c0,0.6-0.4,1-1,1c-0.6,0-1-0.4-1-1C620.5,564.9,620.9,564.4,621.5,564.4z"/>
	<circle class="st11" cx="694.3" cy="544.9" r="1.5"/>
	<path class="st11" d="M694.3,542.9c-1.1,0-2,0.9-2,2c0,1.1,0.9,2,2,2s2-0.9,2-2C696.3,543.8,695.4,542.9,694.3,542.9z M694.3,543.9
		c0.6,0,1,0.4,1,1c0,0.6-0.4,1-1,1s-1-0.4-1-1C693.3,544.3,693.7,543.9,694.3,543.9z"/>
	<polygon class="st16" points="548.7,588.6 585.1,572.3 621.5,575.4 694.3,557.3 694.3,532.4 621.5,555.5 585.1,552.6 548.7,559.9 
		512.3,533.4 512.3,550.5 	"/>
	<polyline class="st12" points="512.3,574.2 548.7,609.5 585.1,577.2 621.5,571.3 694.3,533.1 	"/>
	<circle class="st13" cx="512.3" cy="574.2" r="1.5"/>
	<path class="st13" d="M512.3,572.2c-1.1,0-2,0.9-2,2c0,1.1,0.9,2,2,2c1.1,0,2-0.9,2-2C514.3,573.1,513.4,572.2,512.3,572.2z
		 M512.3,573.2c0.6,0,1,0.4,1,1c0,0.6-0.4,1-1,1c-0.6,0-1-0.4-1-1C511.3,573.7,511.7,573.2,512.3,573.2z"/>
	<circle class="st13" cx="548.7" cy="609.5" r="1.5"/>
	<path class="st13" d="M548.7,607.5c-1.1,0-2,0.9-2,2c0,1.1,0.9,2,2,2c1.1,0,2-0.9,2-2C550.7,608.4,549.8,607.5,548.7,607.5z
		 M548.7,608.5c0.6,0,1,0.4,1,1c0,0.6-0.4,1-1,1c-0.6,0-1-0.4-1-1C547.7,608.9,548.1,608.5,548.7,608.5z"/>
	<circle class="st13" cx="585.1" cy="577.2" r="1.5"/>
	<path class="st13" d="M585.1,575.2c-1.1,0-2,0.9-2,2c0,1.1,0.9,2,2,2c1.1,0,2-0.9,2-2C587.1,576.1,586.2,575.2,585.1,575.2z
		 M585.1,576.2c0.6,0,1,0.4,1,1c0,0.6-0.4,1-1,1c-0.6,0-1-0.4-1-1C584.1,576.6,584.5,576.2,585.1,576.2z"/>
	<circle class="st13" cx="621.5" cy="571.3" r="1.5"/>
	<path class="st13" d="M621.5,569.3c-1.1,0-2,0.9-2,2c0,1.1,0.9,2,2,2c1.1,0,2-0.9,2-2C623.5,570.2,622.6,569.3,621.5,569.3z
		 M621.5,570.3c0.6,0,1,0.4,1,1c0,0.6-0.4,1-1,1c-0.6,0-1-0.4-1-1C620.5,570.8,620.9,570.3,621.5,570.3z"/>
	<circle class="st13" cx="694.3" cy="533.1" r="1.5"/>
	<path class="st13" d="M694.3,531.1c-1.1,0-2,0.9-2,2s0.9,2,2,2s2-0.9,2-2S695.4,531.1,694.3,531.1z M694.3,532.1c0.6,0,1,0.4,1,1
		s-0.4,1-1,1s-1-0.4-1-1S693.7,532.1,694.3,532.1z"/>
	<polygon class="st17" points="548.7,622.6 585.1,587.4 621.5,581.4 694.3,543.8 694.3,522.4 621.5,561.2 585.1,567 548.7,596.4 
		512.3,564.1 512.3,584.4 	"/>
	<line class="st18" x1="512.3" y1="594.2" x2="694.3" y2="594.2"/>
	<line class="st18" x1="512.3" y1="594.2" x2="694.3" y2="594.2"/>
	<rect x="512.3" y="678.6" class="st1" width="182" height="141"/>
	<line class="st6" x1="512.3" y1="819.6" x2="694.3" y2="819.6"/>
	<line class="st6" x1="512.3" y1="819.6" x2="512.3" y2="817.8"/>
	<line class="st6" x1="548.5" y1="819.6" x2="548.5" y2="817.8"/>
	<line class="st6" x1="584.8" y1="819.6" x2="584.8" y2="817.8"/>
	<line class="st6" x1="621.1" y1="819.6" x2="621.1" y2="817.8"/>
	<line class="st6" x1="693.7" y1="819.6" x2="693.7" y2="817.8"/>
	<text transform="matrix(1 0 0 1 509.2567 833.621)" class="st2 st3 st7">0</text>
	<text transform="matrix(1 0 0 1 545.5376 833.621)" class="st2 st3 st7">4</text>
	<text transform="matrix(1 0 0 1 581.8184 833.621)" class="st2 st3 st7">8</text>
	<text transform="matrix(1 0 0 1 615.0991 833.621)" class="st2 st3 st7">12</text>
	<text transform="matrix(1 0 0 1 687.6608 833.621)" class="st2 st3 st7">20</text>
	<line class="st6" x1="512.3" y1="819.6" x2="512.3" y2="678.6"/>
	<line class="st6" x1="512.3" y1="819.6" x2="514.1" y2="819.6"/>
	<line class="st6" x1="512.3" y1="791.4" x2="514.1" y2="791.4"/>
	<line class="st6" x1="512.3" y1="763.2" x2="514.1" y2="763.2"/>
	<line class="st6" x1="512.3" y1="735" x2="514.1" y2="735"/>
	<line class="st6" x1="512.3" y1="706.8" x2="514.1" y2="706.8"/>
	<line class="st6" x1="512.3" y1="678.6" x2="514.1" y2="678.6"/>
	<text transform="matrix(1 0 0 1 502.2567 823.121)" class="st2 st3 st7">0</text>
	<text transform="matrix(1 0 0 1 494.2567 794.921)" class="st2 st3 st7">0.2</text>
	<text transform="matrix(1 0 0 1 494.2567 766.721)" class="st2 st3 st7">0.4</text>
	<text transform="matrix(1 0 0 1 494.2567 738.521)" class="st2 st3 st7">0.6</text>
	<text transform="matrix(1 0 0 1 494.2567 710.321)" class="st2 st3 st7">0.8</text>
	<text transform="matrix(1 0 0 1 502.2567 682.121)" class="st2 st3 st7">1</text>
	<polyline class="st10" points="512.3,690.4 548.7,696.2 585.1,708 621.5,693.3 694.3,713.9 	"/>
	<circle class="st11" cx="512.3" cy="690.4" r="1.5"/>
	<path class="st11" d="M512.3,688.4c-1.1,0-2,0.9-2,2c0,1.1,0.9,2,2,2c1.1,0,2-0.9,2-2C514.3,689.3,513.4,688.4,512.3,688.4z
		 M512.3,689.4c0.6,0,1,0.4,1,1c0,0.6-0.4,1-1,1c-0.6,0-1-0.4-1-1C511.3,689.8,511.7,689.4,512.3,689.4z"/>
	<circle class="st11" cx="548.7" cy="696.2" r="1.5"/>
	<path class="st11" d="M548.7,694.2c-1.1,0-2,0.9-2,2c0,1.1,0.9,2,2,2c1.1,0,2-0.9,2-2C550.7,695.1,549.8,694.2,548.7,694.2z
		 M548.7,695.2c0.6,0,1,0.4,1,1c0,0.6-0.4,1-1,1c-0.6,0-1-0.4-1-1C547.7,695.7,548.1,695.2,548.7,695.2z"/>
	<circle class="st11" cx="585.1" cy="708" r="1.5"/>
	<path class="st11" d="M585.1,706c-1.1,0-2,0.9-2,2c0,1.1,0.9,2,2,2c1.1,0,2-0.9,2-2C587.1,706.9,586.2,706,585.1,706z M585.1,707
		c0.6,0,1,0.4,1,1c0,0.6-0.4,1-1,1c-0.6,0-1-0.4-1-1C584.1,707.4,584.5,707,585.1,707z"/>
	<circle class="st11" cx="621.5" cy="693.3" r="1.5"/>
	<path class="st11" d="M621.5,691.3c-1.1,0-2,0.9-2,2c0,1.1,0.9,2,2,2c1.1,0,2-0.9,2-2C623.5,692.2,622.6,691.3,621.5,691.3z
		 M621.5,692.3c0.6,0,1,0.4,1,1c0,0.6-0.4,1-1,1c-0.6,0-1-0.4-1-1C620.5,692.8,620.9,692.3,621.5,692.3z"/>
	<circle class="st11" cx="694.3" cy="713.9" r="1.5"/>
	<path class="st11" d="M694.3,711.9c-1.1,0-2,0.9-2,2c0,1.1,0.9,2,2,2s2-0.9,2-2C696.3,712.8,695.4,711.9,694.3,711.9z M694.3,712.9
		c0.6,0,1,0.4,1,1c0,0.6-0.4,1-1,1s-1-0.4-1-1C693.3,713.3,693.7,712.9,694.3,712.9z"/>
	<polygon class="st16" points="512.3,696 548.7,705.8 585.1,716.3 621.5,699.5 694.3,726.3 694.3,701.4 621.5,687.1 585.1,699.7 
		548.7,686.7 512.3,684.7 	"/>
	<polyline class="st12" points="512.3,772.6 548.7,784.4 585.1,766.7 621.5,778.5 694.3,784.4 	"/>
	<circle class="st13" cx="512.3" cy="772.6" r="1.5"/>
	<path class="st13" d="M512.3,770.6c-1.1,0-2,0.9-2,2c0,1.1,0.9,2,2,2c1.1,0,2-0.9,2-2C514.3,771.5,513.4,770.6,512.3,770.6z
		 M512.3,771.6c0.6,0,1,0.4,1,1c0,0.6-0.4,1-1,1c-0.6,0-1-0.4-1-1C511.3,772.1,511.7,771.6,512.3,771.6z"/>
	<circle class="st13" cx="548.7" cy="784.4" r="1.5"/>
	<path class="st13" d="M548.7,782.4c-1.1,0-2,0.9-2,2c0,1.1,0.9,2,2,2c1.1,0,2-0.9,2-2C550.7,783.3,549.8,782.4,548.7,782.4z
		 M548.7,783.4c0.6,0,1,0.4,1,1c0,0.6-0.4,1-1,1c-0.6,0-1-0.4-1-1C547.7,783.8,548.1,783.4,548.7,783.4z"/>
	<circle class="st13" cx="585.1" cy="766.7" r="1.5"/>
	<path class="st13" d="M585.1,764.7c-1.1,0-2,0.9-2,2c0,1.1,0.9,2,2,2c1.1,0,2-0.9,2-2C587.1,765.6,586.2,764.7,585.1,764.7z
		 M585.1,765.7c0.6,0,1,0.4,1,1c0,0.6-0.4,1-1,1c-0.6,0-1-0.4-1-1C584.1,766.2,584.5,765.7,585.1,765.7z"/>
	<circle class="st13" cx="621.5" cy="778.5" r="1.5"/>
	<path class="st13" d="M621.5,776.5c-1.1,0-2,0.9-2,2c0,1.1,0.9,2,2,2c1.1,0,2-0.9,2-2C623.5,777.4,622.6,776.5,621.5,776.5z
		 M621.5,777.5c0.6,0,1,0.4,1,1c0,0.6-0.4,1-1,1c-0.6,0-1-0.4-1-1C620.5,777.9,620.9,777.5,621.5,777.5z"/>
	<circle class="st13" cx="694.3" cy="784.4" r="1.5"/>
	<path class="st13" d="M694.3,782.4c-1.1,0-2,0.9-2,2c0,1.1,0.9,2,2,2s2-0.9,2-2C696.3,783.3,695.4,782.4,694.3,782.4z M694.3,783.4
		c0.6,0,1,0.4,1,1c0,0.6-0.4,1-1,1s-1-0.4-1-1C693.3,783.8,693.7,783.4,694.3,783.4z"/>
	<polygon class="st17" points="512.3,763 512.3,782.2 548.7,796.8 585.1,776.6 621.5,787.7 694.3,796.8 694.3,771.9 621.5,769.2 
		585.1,756.9 548.7,771.9 	"/>
	<line class="st19" x1="512.3" y1="699.8" x2="694.3" y2="699.8"/>
	<line class="st20" x1="512.3" y1="787.9" x2="694.3" y2="787.9"/>
	<rect x="710.3" y="634.1" class="st1" width="123" height="61"/>
	<text transform="matrix(1 0 0 1 747.2568 645.121)" class="st3 st14">High visual reliability</text>
	<line class="st10" x1="714.3" y1="641.6" x2="744.3" y2="641.6"/>
	<circle class="st11" cx="729.3" cy="641.6" r="1.5"/>
	<path class="st11" d="M729.3,639.6c-1.1,0-2,0.9-2,2c0,1.1,0.9,2,2,2s2-0.9,2-2C731.3,640.5,730.4,639.6,729.3,639.6z M729.3,640.6
		c0.6,0,1,0.4,1,1c0,0.6-0.4,1-1,1s-1-0.4-1-1C728.3,641.1,728.7,640.6,729.3,640.6z"/>
	<text transform="matrix(1 0 0 1 747.2568 656.621)" class="st3 st14">Low visual reliability</text>
	<line class="st12" x1="714.3" y1="653.1" x2="744.3" y2="653.1"/>
	<circle class="st13" cx="729.3" cy="653.1" r="1.5"/>
	<path class="st13" d="M729.3,651.1c-1.1,0-2,0.9-2,2c0,1.1,0.9,2,2,2s2-0.9,2-2C731.3,652,730.4,651.1,729.3,651.1z M729.3,652.1
		c0.6,0,1,0.4,1,1c0,0.6-0.4,1-1,1s-1-0.4-1-1C728.3,652.6,728.7,652.1,729.3,652.1z"/>
	<text transform="matrix(1 0 0 1 747.2568 668.121)" class="st3 st14">Unimodal (aud)</text>
	<text transform="matrix(1 0 0 1 747.2568 679.621)" class="st3 st14">Unimodal (high vis)</text>
	<text transform="matrix(1 0 0 1 747.2568 691.121)" class="st3 st14">Unimodal (low vis)</text>
	<line class="st18" x1="714.3" y1="664.6" x2="744.3" y2="664.6"/>
	<line class="st19" x1="714.3" y1="676.1" x2="744.3" y2="676.1"/>
	<line class="st20" x1="714.3" y1="687.6" x2="744.3" y2="687.6"/>
</g>
<rect x="27.1" y="39.7" class="st21" width="35.1" height="31.8"/>
<text transform="matrix(1 0 0 1 27.1079 54.1138)" class="st9 st22">A</text>
<rect x="27.6" y="464.5" class="st21" width="35.1" height="31.8"/>
<text transform="matrix(1 0 0 1 27.5945 478.865)" class="st9 st22">B</text>
</svg>
